GoogleSansCode-RegularProportional.ufo
<glyph name="exclam" format="2">
  <advance width="1200"/>
  <unicode hex="0021"/>
  <outline>
    <contour>
      <point x="503" y="550" type="line"/>
      <point x="697" y="550" type="line"/>
      <point x="725" y="1492" type="line"/>
      <point x="475" y="1492" type="line"/>
    </contour>
    <contour>
      <point x="600" y="-29" type="curve" smooth="yes"/>
      <point x="692" y="-29"/>
      <point x="764" y="44"/>
      <point x="764" y="135" type="curve" smooth="yes"/>
      <point x="764" y="226"/>
      <point x="692" y="299"/>
      <point x="600" y="299" type="curve" smooth="yes"/>
      <point x="508" y="299"/>
      <point x="436" y="226"/>
      <point x="436" y="135" type="curve" smooth="yes"/>
      <point x="436" y="44"/>
      <point x="508" y="-29"/>
    </contour>
  </outline>
</glyph>
<glyph name="quotesingle" format="2">
  <advance width="1200"/>
  <unicode hex="0027"/>
  <outline>
    <contour>
      <point x="488" y="904" type="line"/>
      <point x="712" y="904" type="line"/>
      <point x="712" y="1460" type="line"/>
      <point x="488" y="1460" type="line"/>
    </contour>
  </outline>
</glyph>
<glyph name="parenright" format="2">
  <advance width="1200"/>
  <unicode hex="0029"/>
  <outline>
    <contour>
      <point x="294" y="-308" type="line"/>
      <point x="651" y="-47"/>
      <point x="838" y="260"/>
      <point x="838" y="666" type="curve" smooth="yes"/>
      <point x="838" y="1072"/>
      <point x="651" y="1379"/>
      <point x="294" y="1640" type="curve"/>
      <point x="184" y="1495" type="line"/>
      <point x="501" y="1265"/>
      <point x="650" y="1013"/>
      <point x="650" y="666" type="curve" smooth="yes"/>
      <point x="650" y="319"/>
      <point x="501" y="67"/>
      <point x="184" y="-163" type="curve"/>
    </contour>
  </outline>
</glyph>
<glyph name="asterisk" format="2">
  <advance width="1200"/>
  <unicode hex="002A"/>
  <outline>
    <contour>
      <point x="157" y="429" type="line"/>
      <point x="631" y="716" type="line"/>
      <point x="1121" y="983" type="line"/>
      <point x="1043" y="1119" type="line"/>
      <point x="569" y="828" type="line"/>
      <point x="79" y="565" type="line"/>
    </contour>
    <contour>
      <point x="1043" y="429" type="line"/>
      <point x="1121" y="565" type="line"/>
      <point x="631" y="828" type="line"/>
      <point x="157" y="1119" type="line"/>
      <point x="79" y="983" type="line"/>
      <point x="569" y="716" type="line"/>
    </contour>
    <contour>
      <point x="522" y="216" type="line"/>
      <point x="678" y="216" type="line"/>
      <point x="678" y="1332" type="line"/>
      <point x="522" y="1332" type="line"/>
    </contour>
  </outline>
</glyph>
<glyph name="plus" format="2">
  <advance width="1200"/>
  <unicode hex="002B"/>
  <outline>
    <contour>
      <point x="510" y="164" type="line"/>
      <point x="690" y="164" type="line"/>
      <point x="690" y="1086" type="line"/>
      <point x="510" y="1086" type="line"/>
    </contour>
    <contour>
      <point x="140" y="541" type="line"/>
      <point x="1060" y="541" type="line"/>
      <point x="1060" y="711" type="line"/>
      <point x="140" y="711" type="line"/>
    </contour>
  </outline>
</glyph>
<glyph name="zero" format="2">
  <advance width="1200"/>
  <unicode hex="0030"/>
  <outline>
    <contour>
      <point x="197" y="405" type="line"/>
      <point x="1059" y="871" type="line"/>
      <point x="1004" y="1028" type="line"/>
      <point x="142" y="562" type="line"/>
    </contour>
    <contour>
      <point x="600" y="-32" type="curve" smooth="yes"/>
      <point x="918" y="-32"/>
      <point x="1102" y="231"/>
      <point x="1102" y="679" type="curve" smooth="yes"/>
      <point x="1102" y="755" type="line" smooth="yes"/>
      <point x="1102" y="1202"/>
      <point x="918" y="1464"/>
      <point x="600" y="1464" type="curve" smooth="yes"/>
      <point x="282" y="1464"/>
      <point x="98" y="1202"/>
      <point x="98" y="755" type="curve" smooth="yes"/>
      <point x="98" y="679" type="line" smooth="yes"/>
      <point x="98" y="232"/>
      <point x="282" y="-32"/>
    </contour>
    <contour>
      <point x="600" y="138" type="curve" smooth="yes"/>
      <point x="388" y="138"/>
      <point x="276" y="307"/>
      <point x="276" y="678" type="curve" smooth="yes"/>
      <point x="276" y="756" type="line" smooth="yes"/>
      <point x="276" y="1109"/>
      <point x="388" y="1294"/>
      <point x="600" y="1294" type="curve" smooth="yes"/>
      <point x="812" y="1294"/>
      <point x="924" y="1127"/>
      <point x="924" y="756" type="curve" smooth="yes"/>
      <point x="924" y="678" type="line" smooth="yes"/>
      <point x="924" y="325"/>
      <point x="812" y="138"/>
    </contour>
  </outline>
</glyph>
<glyph name="two" format="2">
  <advance width="1200"/>
  <unicode hex="0032"/>
  <outline>
    <contour>
      <point x="150" y="0" type="line"/>
      <point x="1036" y="0" type="line"/>
      <point x="1036" y="176" type="line"/>
      <point x="387" y="176" type="line"/>
      <point x="387" y="184" type="line"/>
      <point x="779" y="620" type="line" smooth="yes"/>
      <point x="956" y="817"/>
      <point x="1014" y="929"/>
      <point x="1014" y="1071" type="curve" smooth="yes"/>
      <point x="1014" y="1083" type="line" smooth="yes"/>
      <point x="1014" y="1309"/>
      <point x="851" y="1464"/>
      <point x="614" y="1464" type="curve" smooth="yes"/>
      <point x="410" y="1464"/>
      <point x="249" y="1359"/>
      <point x="150" y="1157" type="curve"/>
      <point x="320" y="1075" type="line"/>
      <point x="389" y="1214"/>
      <point x="483" y="1281"/>
      <point x="609" y="1281" type="curve" smooth="yes"/>
      <point x="742" y="1281"/>
      <point x="820" y="1206"/>
      <point x="820" y="1078" type="curve" smooth="yes"/>
      <point x="820" y="1068" type="line" smooth="yes"/>
      <point x="820" y="961"/>
      <point x="777" y="878"/>
      <point x="647" y="732" type="curve" smooth="yes"/>
      <point x="150" y="172" type="line"/>
    </contour>
  </outline>
</glyph>
<glyph name="four" format="2">
  <advance width="1200"/>
  <unicode hex="0034"/>
  <outline>
    <contour>
      <point x="714" y="0" type="line"/>
      <point x="898" y="0" type="line"/>
      <point x="898" y="1432" type="line"/>
      <point x="702" y="1432" type="line"/>
      <point x="76" y="510" type="line"/>
      <point x="76" y="358" type="line"/>
      <point x="1114" y="358" type="line"/>
      <point x="1114" y="528" type="line"/>
      <point x="838" y="528" type="line"/>
      <point x="792" y="524" type="line"/>
      <point x="282" y="524" type="line"/>
      <point x="282" y="529" type="line"/>
      <point x="715" y="1166" type="line"/>
      <point x="798" y="1166" type="line"/>
      <point x="720" y="1257" type="line"/>
      <point x="720" y="466" type="line"/>
      <point x="714" y="426" type="line"/>
    </contour>
  </outline>
</glyph>
<glyph name="five" format="2">
  <advance width="1200"/>
  <unicode hex="0035"/>
  <outline>
    <contour>
      <point x="601" y="-31" type="curve" smooth="yes"/>
      <point x="891" y="-31"/>
      <point x="1080" y="156"/>
      <point x="1080" y="442" type="curve" smooth="yes"/>
      <point x="1080" y="462" type="line" smooth="yes"/>
      <point x="1080" y="730"/>
      <point x="912" y="913"/>
      <point x="664" y="913" type="curve" smooth="yes"/>
      <point x="537" y="913"/>
      <point x="425" y="867"/>
      <point x="342" y="783" type="curve"/>
      <point x="337" y="785" type="line"/>
      <point x="404" y="1255" type="line"/>
      <point x="1002" y="1255" type="line"/>
      <point x="1002" y="1432" type="line"/>
      <point x="257" y="1432" type="line"/>
      <point x="156" y="669" type="line"/>
      <point x="350" y="609" type="line"/>
      <point x="424" y="695"/>
      <point x="513" y="739"/>
      <point x="624" y="739" type="curve" smooth="yes"/>
      <point x="788" y="739"/>
      <point x="893" y="634"/>
      <point x="893" y="467" type="curve" smooth="yes"/>
      <point x="893" y="437" type="line" smooth="yes"/>
      <point x="893" y="260"/>
      <point x="779" y="145"/>
      <point x="599" y="145" type="curve" smooth="yes"/>
      <point x="439" y="145"/>
      <point x="329" y="233"/>
      <point x="284" y="395" type="curve"/>
      <point x="112" y="342" type="line"/>
      <point x="178" y="109"/>
      <point x="360" y="-31"/>
    </contour>
  </outline>
</glyph>
<glyph name="eight" format="2">
  <advance width="1200"/>
  <unicode hex="0038"/>
  <outline>
    <contour>
      <point x="600" y="-32" type="curve" smooth="yes"/>
      <point x="867" y="-32"/>
      <point x="1065" y="142"/>
      <point x="1065" y="379" type="curve" smooth="yes"/>
      <point x="1065" y="393" type="line" smooth="yes"/>
      <point x="1065" y="555"/>
      <point x="968" y="701"/>
      <point x="817" y="760" type="curve"/>
      <point x="817" y="765" type="line"/>
      <point x="941" y="826"/>
      <point x="1016" y="943"/>
      <point x="1016" y="1078" type="curve" smooth="yes"/>
      <point x="1016" y="1088" type="line" smooth="yes"/>
      <point x="1016" y="1307"/>
      <point x="842" y="1464"/>
      <point x="600" y="1464" type="curve" smooth="yes"/>
      <point x="358" y="1464"/>
      <point x="184" y="1307"/>
      <point x="184" y="1088" type="curve" smooth="yes"/>
      <point x="184" y="1078" type="line" smooth="yes"/>
      <point x="184" y="944"/>
      <point x="259" y="826"/>
      <point x="383" y="765" type="curve"/>
      <point x="383" y="760" type="line"/>
      <point x="232" y="701"/>
      <point x="135" y="555"/>
      <point x="135" y="393" type="curve" smooth="yes"/>
      <point x="135" y="379" type="line" smooth="yes"/>
      <point x="135" y="142"/>
      <point x="333" y="-32"/>
    </contour>
    <contour>
      <point x="600" y="140" type="curve" smooth="yes"/>
      <point x="436" y="140"/>
      <point x="321" y="246"/>
      <point x="321" y="395" type="curve" smooth="yes"/>
      <point x="321" y="417" type="line" smooth="yes"/>
      <point x="321" y="567"/>
      <point x="436" y="672"/>
      <point x="600" y="672" type="curve" smooth="yes"/>
      <point x="764" y="672"/>
      <point x="879" y="567"/>
      <point x="879" y="417" type="curve" smooth="yes"/>
      <point x="879" y="395" type="line" smooth="yes"/>
      <point x="879" y="246"/>
      <point x="764" y="140"/>
    </contour>
    <contour>
      <point x="600" y="843" type="curve" smooth="yes"/>
      <point x="461" y="843"/>
      <point x="368" y="930"/>
      <point x="368" y="1058" type="curve" smooth="yes"/>
      <point x="368" y="1078" type="line" smooth="yes"/>
      <point x="368" y="1206"/>
      <point x="461" y="1292"/>
      <point x="600" y="1292" type="curve" smooth="yes"/>
      <point x="740" y="1292"/>
      <point x="832" y="1206"/>
      <point x="832" y="1078" type="curve" smooth="yes"/>
      <point x="832" y="1058" type="line" smooth="yes"/>
      <point x="832" y="929"/>
      <point x="739" y="843"/>
    </contour>
  </outline>
</glyph>
<glyph name="less" format="2">
  <advance width="1200"/>
  <unicode hex="003C"/>
  <outline>
    <contour>
      <point x="1030" y="63" type="line"/>
      <point x="1030" y="259" type="line"/>
      <point x="348" y="622" type="line"/>
      <point x="348" y="630" type="line"/>
      <point x="1030" y="992" type="line"/>
      <point x="1030" y="1188" type="line"/>
      <point x="150" y="710" type="line"/>
      <point x="150" y="542" type="line"/>
    </contour>
  </outline>
</glyph>
<glyph name="greater" format="2">
  <advance width="1200"/>
  <unicode hex="003E"/>
  <outline>
    <contour>
      <point x="170" y="63" type="line"/>
      <point x="1050" y="542" type="line"/>
      <point x="1050" y="710" type="line"/>
      <point x="170" y="1188" type="line"/>
      <point x="170" y="992" type="line"/>
      <point x="852" y="630" type="line"/>
      <point x="852" y="622" type="line"/>
      <point x="170" y="259" type="line"/>
    </contour>
  </outline>
</glyph>
<glyph name="question" format="2">
  <advance width="1200"/>
  <unicode hex="003F"/>
  <outline>
    <contour>
      <point x="486" y="468" type="line"/>
      <point x="673" y="468" type="line"/>
      <point x="673" y="640" type="line"/>
      <point x="818" y="728" type="line" smooth="yes"/>
      <point x="989" y="832"/>
      <point x="1057" y="940"/>
      <point x="1057" y="1093" type="curve" smooth="yes"/>
      <point x="1057" y="1096" type="line" smooth="yes"/>
      <point x="1057" y="1310"/>
      <point x="898" y="1463"/>
      <point x="644" y="1463" type="curve" smooth="yes"/>
      <point x="395" y="1463"/>
      <point x="205" y="1332"/>
      <point x="129" y="1107" type="curve"/>
      <point x="307" y="1045" type="line"/>
      <point x="360" y="1202"/>
      <point x="478" y="1288"/>
      <point x="642" y="1288" type="curve" smooth="yes"/>
      <point x="784" y="1288"/>
      <point x="869" y="1219"/>
      <point x="869" y="1103" type="curve" smooth="yes"/>
      <point x="869" y="1089" type="line" smooth="yes"/>
      <point x="869" y="1001"/>
      <point x="814" y="925"/>
      <point x="697" y="853" type="curve" smooth="yes"/>
      <point x="486" y="724" type="line"/>
    </contour>
    <contour>
      <point x="580" y="-31" type="curve" smooth="yes"/>
      <point x="672" y="-31"/>
      <point x="744" y="40"/>
      <point x="744" y="132" type="curve" smooth="yes"/>
      <point x="744" y="223"/>
      <point x="673" y="293"/>
      <point x="580" y="293" type="curve" smooth="yes"/>
      <point x="487" y="293"/>
      <point x="415" y="224"/>
      <point x="415" y="132" type="curve" smooth="yes"/>
      <point x="415" y="40"/>
      <point x="487" y="-31"/>
    </contour>
  </outline>
</glyph>
<glyph name="at" format="2">
  <advance width="1200"/>
  <unicode hex="0040"/>
  <outline>
    <contour>
      <point x="705" y="-233" type="curve" smooth="yes"/>
      <point x="857" y="-233"/>
      <point x="988" y="-192"/>
      <point x="1094" y="-111" type="curve"/>
      <point x="1008" y="31" type="line"/>
      <point x="911" y="-41"/>
      <point x="819" y="-72"/>
      <point x="707" y="-72" type="curve" smooth="yes"/>
      <point x="390" y="-72"/>
      <point x="227" y="178"/>
      <point x="227" y="662" type="curve" smooth="yes"/>
      <point x="227" y="714" type="line" smooth="yes"/>
      <point x="227" y="1205"/>
      <point x="362" y="1443"/>
      <point x="640" y="1443" type="curve" smooth="yes"/>
      <point x="838" y="1443"/>
      <point x="944" y="1312"/>
      <point x="944" y="1067" type="curve" smooth="yes"/>
      <point x="944" y="961" type="line"/>
      <point x="939" y="961" type="line"/>
      <point x="889" y="1054"/>
      <point x="815" y="1099"/>
      <point x="710" y="1099" type="curve" smooth="yes"/>
      <point x="519" y="1099"/>
      <point x="386" y="925"/>
      <point x="386" y="674" type="curve" smooth="yes"/>
      <point x="386" y="648" type="line" smooth="yes"/>
      <point x="386" y="394"/>
      <point x="516" y="222"/>
      <point x="707" y="222" type="curve" smooth="yes"/>
      <point x="809" y="222"/>
      <point x="881" y="265"/>
      <point x="939" y="361" type="curve"/>
      <point x="944" y="361" type="line"/>
      <point x="944" y="233" type="line"/>
      <point x="1109" y="233" type="line"/>
      <point x="1109" y="1072" type="line" smooth="yes"/>
      <point x="1109" y="1402"/>
      <point x="931" y="1604"/>
      <point x="641" y="1604" type="curve" smooth="yes"/>
      <point x="260" y="1604"/>
      <point x="57" y="1293"/>
      <point x="57" y="709" type="curve" smooth="yes"/>
      <point x="57" y="667" type="line" smooth="yes"/>
      <point x="57" y="90"/>
      <point x="289" y="-233"/>
    </contour>
    <contour>
      <point x="745" y="376" type="curve" smooth="yes"/>
      <point x="623" y="376"/>
      <point x="550" y="476"/>
      <point x="550" y="643" type="curve" smooth="yes"/>
      <point x="550" y="679" type="line" smooth="yes"/>
      <point x="550" y="844"/>
      <point x="624" y="945"/>
      <point x="745" y="945" type="curve" smooth="yes"/>
      <point x="864" y="945"/>
      <point x="939" y="843"/>
      <point x="939" y="679" type="curve" smooth="yes"/>
      <point x="939" y="643" type="line" smooth="yes"/>
      <point x="939" y="479"/>
      <point x="864" y="376"/>
    </contour>
  </outline>
</glyph>
<glyph name="B" format="2">
  <advance width="1200"/>
  <unicode hex="0042"/>
  <outline>
    <contour>
      <point x="172" y="0" type="line"/>
      <point x="653" y="0" type="line" smooth="yes"/>
      <point x="906" y="0"/>
      <point x="1074" y="151"/>
      <point x="1074" y="379" type="curve" smooth="yes"/>
      <point x="1074" y="407" type="line" smooth="yes"/>
      <point x="1074" y="581"/>
      <point x="975" y="710"/>
      <point x="811" y="745" type="curve"/>
      <point x="811" y="752" type="line"/>
      <point x="943" y="801"/>
      <point x="1017" y="912"/>
      <point x="1017" y="1061" type="curve" smooth="yes"/>
      <point x="1017" y="1089" type="line" smooth="yes"/>
      <point x="1017" y="1296"/>
      <point x="867" y="1432"/>
      <point x="618" y="1432" type="curve" smooth="yes"/>
      <point x="172" y="1432" type="line"/>
    </contour>
    <contour>
      <point x="354" y="164" type="line"/>
      <point x="354" y="1268" type="line"/>
      <point x="601" y="1268" type="line" smooth="yes"/>
      <point x="750" y="1268"/>
      <point x="829" y="1193"/>
      <point x="829" y="1054" type="curve" smooth="yes"/>
      <point x="829" y="1034" type="line" smooth="yes"/>
      <point x="829" y="896"/>
      <point x="748" y="820"/>
      <point x="601" y="820" type="curve" smooth="yes"/>
      <point x="295" y="820" type="line"/>
      <point x="295" y="666" type="line"/>
      <point x="624" y="666" type="line" smooth="yes"/>
      <point x="795" y="666"/>
      <point x="886" y="580"/>
      <point x="886" y="427" type="curve" smooth="yes"/>
      <point x="886" y="403" type="line" smooth="yes"/>
      <point x="886" y="250"/>
      <point x="795" y="164"/>
      <point x="635" y="164" type="curve" smooth="yes"/>
    </contour>
  </outline>
</glyph>
<glyph name="C" format="2">
  <advance width="1200"/>
  <unicode hex="0043"/>
  <anchor x="655" y="0" name="bottom"/>
  <anchor x="645" y="1432" name="top"/>
  <outline>
    <contour>
      <point x="653" y="-32" type="curve" smooth="yes"/>
      <point x="885" y="-32"/>
      <point x="1049" y="91"/>
      <point x="1123" y="321" type="curve"/>
      <point x="950" y="385" type="line"/>
      <point x="898" y="223"/>
      <point x="801" y="144"/>
      <point x="656" y="144" type="curve" smooth="yes"/>
      <point x="423" y="144"/>
      <point x="290" y="343"/>
      <point x="290" y="692" type="curve" smooth="yes"/>
      <point x="290" y="740" type="line" smooth="yes"/>
      <point x="290" y="1092"/>
      <point x="417" y="1288"/>
      <point x="643" y="1288" type="curve" smooth="yes"/>
      <point x="787" y="1288"/>
      <point x="874" y="1215"/>
      <point x="932" y="1046" type="curve"/>
      <point x="1104" y="1112" type="line"/>
      <point x="1029" y="1341"/>
      <point x="868" y="1464"/>
      <point x="647" y="1464" type="curve" smooth="yes"/>
      <point x="307" y="1464"/>
      <point x="100" y="1189"/>
      <point x="100" y="735" type="curve" smooth="yes"/>
      <point x="100" y="697" type="line" smooth="yes"/>
      <point x="100" y="249"/>
      <point x="314" y="-32"/>
    </contour>
  </outline>
</glyph>
<glyph name="F" format="2">
  <advance width="1200"/>
  <unicode hex="0046"/>
  <outline>
    <contour>
      <point x="184" y="0" type="line"/>
      <point x="370" y="0" type="line"/>
      <point x="370" y="1258" type="line"/>
      <point x="1010" y="1258" type="line"/>
      <point x="1010" y="1432" type="line"/>
      <point x="184" y="1432" type="line"/>
    </contour>
    <contour>
      <point x="292" y="624" type="line"/>
      <point x="950" y="624" type="line"/>
      <point x="950" y="798" type="line"/>
      <point x="292" y="798" type="line"/>
    </contour>
  </outline>
</glyph>
<glyph name="I" format="2">
  <advance width="1200"/>
  <unicode hex="0049"/>
  <anchor x="600" y="0" name="bottom"/>
  <anchor x="750" y="0" name="ogonek"/>
  <anchor x="600" y="1432" name="top"/>
  <outline>
    <contour>
      <point x="506" y="91" type="line"/>
      <point x="694" y="91" type="line"/>
      <point x="694" y="1341" type="line"/>
      <point x="506" y="1341" type="line"/>
    </contour>
    <contour>
      <point x="178" y="0" type="line"/>
      <point x="1022" y="0" type="line"/>
      <point x="1022" y="176" type="line"/>
      <point x="178" y="176" type="line"/>
    </contour>
    <contour>
      <point x="178" y="1257" type="line"/>
      <point x="1022" y="1257" type="line"/>
      <point x="1022" y="1432" type="line"/>
      <point x="178" y="1432" type="line"/>
    </contour>
  </outline>
</glyph>
<glyph name="J" format="2">
  <advance width="1200"/>
  <unicode hex="004A"/>
  <anchor x="905" y="1432" name="top"/>
  <outline>
    <contour>
      <point x="604" y="-32" type="curve" smooth="yes"/>
      <point x="864" y="-32"/>
      <point x="1018" y="145"/>
      <point x="1018" y="444" type="curve" smooth="yes"/>
      <point x="1018" y="1432" type="line"/>
      <point x="832" y="1432" type="line"/>
      <point x="832" y="448" type="line" smooth="yes"/>
      <point x="832" y="247"/>
      <point x="753" y="144"/>
      <point x="600" y="144" type="curve" smooth="yes"/>
      <point x="458" y="144"/>
      <point x="365" y="224"/>
      <point x="321" y="383" type="curve"/>
      <point x="148" y="319" type="line"/>
      <point x="212" y="97"/>
      <point x="379" y="-32"/>
    </contour>
  </outline>
</glyph>
<glyph name="M" format="2">
  <advance width="1200"/>
  <unicode hex="004D"/>
  <outline>
    <contour>
      <point x="87" y="0" type="line"/>
      <point x="263" y="0" type="line"/>
      <point x="263" y="755" type="line"/>
      <point x="243" y="1127" type="line"/>
      <point x="249" y="1127" type="line"/>
      <point x="535" y="459" type="line"/>
      <point x="665" y="459" type="line"/>
      <point x="951" y="1127" type="line"/>
      <point x="957" y="1127" type="line"/>
      <point x="937" y="755" type="line"/>
      <point x="937" y="0" type="line"/>
      <point x="1113" y="0" type="line"/>
      <point x="1113" y="1432" type="line"/>
      <point x="933" y="1432" type="line"/>
      <point x="688" y="886" type="line"/>
      <point x="603" y="665" type="line"/>
      <point x="597" y="665" type="line"/>
      <point x="512" y="886" type="line"/>
      <point x="267" y="1432" type="line"/>
      <point x="87" y="1432" type="line"/>
    </contour>
  </outline>
</glyph>
<glyph name="P" format="2">
  <advance width="1200"/>
  <unicode hex="0050"/>
  <outline>
    <contour>
      <point x="162" y="0" type="line"/>
      <point x="346" y="0" type="line"/>
      <point x="346" y="1260" type="line"/>
      <point x="609" y="1260" type="line" smooth="yes"/>
      <point x="775" y="1260"/>
      <point x="872" y="1163"/>
      <point x="872" y="997" type="curve" smooth="yes"/>
      <point x="872" y="959" type="line" smooth="yes"/>
      <point x="872" y="792"/>
      <point x="775" y="694"/>
      <point x="609" y="694" type="curve" smooth="yes"/>
      <point x="267" y="694" type="line"/>
      <point x="267" y="522" type="line"/>
      <point x="614" y="522" type="line" smooth="yes"/>
      <point x="881" y="522"/>
      <point x="1060" y="699"/>
      <point x="1060" y="963" type="curve" smooth="yes"/>
      <point x="1060" y="991" type="line" smooth="yes"/>
      <point x="1060" y="1255"/>
      <point x="881" y="1432"/>
      <point x="614" y="1432" type="curve" smooth="yes"/>
      <point x="162" y="1432" type="line"/>
    </contour>
  </outline>
</glyph>
<glyph name="R" format="2">
  <advance width="1200"/>
  <unicode hex="0052"/>
  <anchor x="525" y="1432" name="top"/>
  <outline>
    <contour>
      <point x="160" y="0" type="line"/>
      <point x="344" y="0" type="line"/>
      <point x="344" y="1260" type="line"/>
      <point x="598" y="1260" type="line" smooth="yes"/>
      <point x="768" y="1260"/>
      <point x="870" y="1167"/>
      <point x="870" y="1012" type="curve" smooth="yes"/>
      <point x="870" y="982" type="line" smooth="yes"/>
      <point x="870" y="827"/>
      <point x="769" y="734"/>
      <point x="598" y="734" type="curve" smooth="yes"/>
      <point x="264" y="734" type="line"/>
      <point x="264" y="568" type="line"/>
      <point x="602" y="568" type="line" smooth="yes"/>
      <point x="878" y="568"/>
      <point x="1058" y="734"/>
      <point x="1058" y="990" type="curve" smooth="yes"/>
      <point x="1058" y="1010" type="line" smooth="yes"/>
      <point x="1058" y="1266"/>
      <point x="879" y="1432"/>
      <point x="602" y="1432" type="curve" smooth="yes"/>
      <point x="160" y="1432" type="line"/>
    </contour>
    <contour>
      <point x="935" y="0" type="line"/>
      <point x="1146" y="0" type="line"/>
      <point x="744" y="643" type="line"/>
      <point x="540" y="643" type="line"/>
    </contour>
  </outline>
</glyph>
<glyph name="T" format="2">
  <advance width="1200"/>
  <unicode hex="0054"/>
  <anchor x="600" y="0" name="bottom"/>
  <anchor x="600" y="1432" name="top"/>
  <outline>
    <contour>
      <point x="507" y="0" type="line"/>
      <point x="693" y="0" type="line"/>
      <point x="693" y="1350" type="line"/>
      <point x="507" y="1350" type="line"/>
    </contour>
    <contour>
      <point x="108" y="1256" type="line"/>
      <point x="1092" y="1256" type="line"/>
      <point x="1092" y="1432" type="line"/>
      <point x="108" y="1432" type="line"/>
    </contour>
  </outline>
</glyph>
<glyph name="Z" format="2">
  <advance width="1200"/>
  <unicode hex="005A"/>
  <anchor x="605" y="1432" name="top"/>
  <outline>
    <contour>
      <point x="144" y="0" type="line"/>
      <point x="1056" y="0" type="line"/>
      <point x="1056" y="175" type="line"/>
      <point x="360" y="175" type="line"/>
      <point x="1040" y="1272" type="line"/>
      <point x="1040" y="1432" type="line"/>
      <point x="170" y="1432" type="line"/>
      <point x="170" y="1257" type="line"/>
      <point x="825" y="1257" type="line"/>
      <point x="144" y="160" type="line"/>
    </contour>
  </outline>
</glyph>
<glyph name="underscore" format="2">
  <advance width="1200"/>
  <unicode hex="005F"/>
  <outline>
    <contour>
      <point x="100" y="-202" type="line"/>
      <point x="1100" y="-202" type="line"/>
      <point x="1100" y="-32" type="line"/>
      <point x="100" y="-32" type="line"/>
    </contour>
  </outline>
</glyph>
<glyph name="b" format="2">
  <advance width="1200"/>
  <unicode hex="0062"/>
  <outline>
    <contour>
      <point x="653" y="-32" type="curve" smooth="yes"/>
      <point x="907" y="-32"/>
      <point x="1076" y="184"/>
      <point x="1076" y="506" type="curve" smooth="yes"/>
      <point x="1076" y="541" type="line" smooth="yes"/>
      <point x="1076" y="864"/>
      <point x="914" y="1079"/>
      <point x="666" y="1079" type="curve" smooth="yes"/>
      <point x="520" y="1079"/>
      <point x="412" y="1009"/>
      <point x="340" y="892" type="curve"/>
      <point x="334" y="892" type="line"/>
      <point x="334" y="1460" type="line"/>
      <point x="152" y="1460" type="line"/>
      <point x="152" y="0" type="line"/>
      <point x="320" y="0" type="line"/>
      <point x="320" y="172" type="line"/>
      <point x="327" y="172" type="line"/>
      <point x="391" y="44"/>
      <point x="508" y="-32"/>
    </contour>
    <contour>
      <point x="613" y="132" type="curve" smooth="yes"/>
      <point x="439" y="132"/>
      <point x="327" y="281"/>
      <point x="327" y="512" type="curve" smooth="yes"/>
      <point x="327" y="536" type="line" smooth="yes"/>
      <point x="327" y="768"/>
      <point x="439" y="915"/>
      <point x="613" y="915" type="curve" smooth="yes"/>
      <point x="786" y="915"/>
      <point x="890" y="773"/>
      <point x="890" y="537" type="curve" smooth="yes"/>
      <point x="890" y="510" type="line" smooth="yes"/>
      <point x="890" y="275"/>
      <point x="785" y="132"/>
    </contour>
  </outline>
</glyph>
<glyph name="d" format="2">
  <advance width="1200"/>
  <unicode hex="0064"/>
  <outline>
    <contour>
      <point x="555" y="-31" type="curve" smooth="yes"/>
      <point x="697" y="-31"/>
      <point x="810" y="45"/>
      <point x="873" y="172" type="curve"/>
      <point x="880" y="172" type="line"/>
      <point x="880" y="0" type="line"/>
      <point x="1048" y="0" type="line"/>
      <point x="1048" y="1460" type="line"/>
      <point x="866" y="1460" type="line"/>
      <point x="866" y="894" type="line"/>
      <point x="860" y="894" type="line"/>
      <point x="793" y="1010"/>
      <point x="688" y="1078"/>
      <point x="547" y="1078" type="curve" smooth="yes"/>
      <point x="294" y="1078"/>
      <point x="124" y="866"/>
      <point x="124" y="542" type="curve" smooth="yes"/>
      <point x="124" y="507" type="line" smooth="yes"/>
      <point x="124" y="186"/>
      <point x="300" y="-31"/>
    </contour>
    <contour>
      <point x="592" y="133" type="curve" smooth="yes"/>
      <point x="418" y="133"/>
      <point x="310" y="277"/>
      <point x="310" y="511" type="curve" smooth="yes"/>
      <point x="310" y="537" type="line" smooth="yes"/>
      <point x="310" y="773"/>
      <point x="417" y="914"/>
      <point x="592" y="914" type="curve" smooth="yes"/>
      <point x="764" y="914"/>
      <point x="873" y="767"/>
      <point x="873" y="536" type="curve" smooth="yes"/>
      <point x="873" y="512" type="line" smooth="yes"/>
      <point x="873" y="281"/>
      <point x="763" y="133"/>
    </contour>
  </outline>
</glyph>
<glyph name="e" format="2">
  <advance width="1200"/>
  <unicode hex="0065"/>
  <anchor x="633" y="-32" name="bottom"/>
  <anchor x="901" y="0" name="ogonek"/>
  <anchor x="622" y="1047" name="top"/>
  <outline>
    <contour>
      <point x="630" y="-32" type="curve" smooth="yes"/>
      <point x="824" y="-32"/>
      <point x="965" y="46"/>
      <point x="1055" y="202" type="curve"/>
      <point x="909" y="295" type="line"/>
      <point x="846" y="185"/>
      <point x="757" y="132"/>
      <point x="635" y="132" type="curve" smooth="yes"/>
      <point x="435" y="132"/>
      <point x="310" y="279"/>
      <point x="310" y="514" type="curve" smooth="yes"/>
      <point x="310" y="542" type="line" smooth="yes"/>
      <point x="310" y="776"/>
      <point x="431" y="919"/>
      <point x="621" y="919" type="curve" smooth="yes"/>
      <point x="781" y="919"/>
      <point x="882" y="803"/>
      <point x="882" y="621" type="curve"/>
      <point x="882" y="617" type="line"/>
      <point x="243" y="617" type="line"/>
      <point x="243" y="472" type="line"/>
      <point x="1052" y="472" type="line"/>
      <point x="1059" y="517"/>
      <point x="1062" y="564"/>
      <point x="1062" y="615" type="curve" smooth="yes"/>
      <point x="1062" y="895"/>
      <point x="888" y="1079"/>
      <point x="623" y="1079" type="curve" smooth="yes"/>
      <point x="327" y="1079"/>
      <point x="130" y="866"/>
      <point x="130" y="547" type="curve" smooth="yes"/>
      <point x="130" y="509" type="line" smooth="yes"/>
      <point x="130" y="183"/>
      <point x="328" y="-32"/>
    </contour>
  </outline>
</glyph>
<glyph name="f" format="2">
  <advance width="1200"/>
  <unicode hex="0066"/>
  <outline>
    <contour>
      <point x="396" y="0" type="line"/>
      <point x="576" y="0" type="line"/>
      <point x="576" y="936" type="line"/>
      <point x="572" y="974" type="line"/>
      <point x="572" y="1116" type="line" smooth="yes"/>
      <point x="572" y="1262"/>
      <point x="636" y="1332"/>
      <point x="771" y="1332" type="curve" smooth="yes"/>
      <point x="865" y="1332"/>
      <point x="938" y="1306"/>
      <point x="1017" y="1244" type="curve"/>
      <point x="1114" y="1374" type="line"/>
      <point x="1007" y="1457"/>
      <point x="905" y="1492"/>
      <point x="766" y="1492" type="curve" smooth="yes"/>
      <point x="535" y="1492"/>
      <point x="396" y="1355"/>
      <point x="396" y="1127" type="curve" smooth="yes"/>
    </contour>
    <contour>
      <point x="136" y="852" type="line"/>
      <point x="1064" y="852" type="line"/>
      <point x="1064" y="1008" type="line"/>
      <point x="136" y="1008" type="line"/>
    </contour>
  </outline>
</glyph>
<glyph name="g" format="2">
  <advance width="1200"/>
  <unicode hex="0067"/>
  <anchor x="601" y="1047" name="top"/>
  <outline>
    <contour>
      <point x="593" y="-572" type="curve" smooth="yes"/>
      <point x="918" y="-572"/>
      <point x="1124" y="-420"/>
      <point x="1124" y="-180" type="curve" smooth="yes"/>
      <point x="1124" y="11"/>
      <point x="994" y="124"/>
      <point x="773" y="124" type="curve" smooth="yes"/>
      <point x="502" y="124" type="line"/>
      <point x="581" y="330" type="line"/>
      <point x="470" y="352" type="line"/>
      <point x="269" y="30" type="line"/>
      <point x="269" y="-28" type="line"/>
      <point x="759" y="-28" type="line" smooth="yes"/>
      <point x="889" y="-28"/>
      <point x="952" y="-78"/>
      <point x="952" y="-182" type="curve" smooth="yes"/>
      <point x="952" y="-323"/>
      <point x="813" y="-412"/>
      <point x="593" y="-412" type="curve" smooth="yes"/>
      <point x="365" y="-412"/>
      <point x="249" y="-340"/>
      <point x="249" y="-198" type="curve" smooth="yes"/>
      <point x="249" y="-110"/>
      <point x="293" y="-37"/>
      <point x="372" y="4" type="curve"/>
      <point x="328" y="91" type="line"/>
      <point x="174" y="39"/>
      <point x="86" y="-74"/>
      <point x="86" y="-221" type="curve" smooth="yes"/>
      <point x="86" y="-437"/>
      <point x="281" y="-572"/>
    </contour>
    <contour>
      <point x="601" y="287" type="curve" smooth="yes"/>
      <point x="845" y="287"/>
      <point x="1021" y="450"/>
      <point x="1021" y="678" type="curve" smooth="yes"/>
      <point x="1021" y="688" type="line" smooth="yes"/>
      <point x="1021" y="908"/>
      <point x="838" y="1079"/>
      <point x="601" y="1079" type="curve" smooth="yes"/>
      <point x="356" y="1079"/>
      <point x="181" y="916"/>
      <point x="181" y="688" type="curve" smooth="yes"/>
      <point x="181" y="678" type="line" smooth="yes"/>
      <point x="181" y="457"/>
      <point x="364" y="287"/>
    </contour>
    <contour>
      <point x="601" y="435" type="curve" smooth="yes"/>
      <point x="456" y="435"/>
      <point x="353" y="533"/>
      <point x="353" y="671" type="curve" smooth="yes"/>
      <point x="353" y="687" type="line" smooth="yes"/>
      <point x="353" y="825"/>
      <point x="456" y="923"/>
      <point x="601" y="923" type="curve" smooth="yes"/>
      <point x="746" y="923"/>
      <point x="849" y="825"/>
      <point x="849" y="687" type="curve" smooth="yes"/>
      <point x="849" y="671" type="line" smooth="yes"/>
      <point x="849" y="533"/>
      <point x="746" y="435"/>
    </contour>
    <contour>
      <point x="833" y="960" type="line"/>
      <point x="892" y="1039"/>
      <point x="975" y="1076"/>
      <point x="1095" y="1076" type="curve"/>
      <point x="1095" y="1276" type="line"/>
      <point x="926" y="1276"/>
      <point x="809" y="1177"/>
      <point x="763" y="996" type="curve"/>
    </contour>
  </outline>
</glyph>
<glyph name="h" format="2">
  <advance width="1200"/>
  <unicode hex="0068"/>
  <outline>
    <contour>
      <point x="185" y="0" type="line"/>
      <point x="366" y="0" type="line"/>
      <point x="366" y="606" type="line" smooth="yes"/>
      <point x="366" y="794"/>
      <point x="476" y="918"/>
      <point x="643" y="918" type="curve" smooth="yes"/>
      <point x="788" y="918"/>
      <point x="864" y="829"/>
      <point x="864" y="660" type="curve" smooth="yes"/>
      <point x="864" y="0" type="line"/>
      <point x="1045" y="0" type="line"/>
      <point x="1045" y="688" type="line" smooth="yes"/>
      <point x="1045" y="932"/>
      <point x="918" y="1079"/>
      <point x="707" y="1079" type="curve" smooth="yes"/>
      <point x="569" y="1079"/>
      <point x="454" y="1019"/>
      <point x="373" y="905" type="curve"/>
      <point x="366" y="905" type="line"/>
      <point x="366" y="1460" type="line"/>
      <point x="185" y="1460" type="line"/>
    </contour>
  </outline>
</glyph>
<glyph name="i" format="2">
  <advance width="1200"/>
  <unicode hex="0069"/>
  <anchor x="647" y="0" name="bottom"/>
  <anchor x="786" y="0" name="ogonek"/>
  <outline>
    <contour>
      <point x="558" y="60" type="line"/>
      <point x="736" y="60" type="line"/>
      <point x="736" y="1047" type="line"/>
      <point x="558" y="1047" type="line"/>
    </contour>
    <contour>
      <point x="203" y="0" type="line"/>
      <point x="1077" y="0" type="line"/>
      <point x="1077" y="148" type="line"/>
      <point x="203" y="148" type="line"/>
    </contour>
    <contour>
      <point x="223" y="899" type="line"/>
      <point x="682" y="899" type="line"/>
      <point x="682" y="1047" type="line"/>
      <point x="223" y="1047" type="line"/>
    </contour>
    <contour>
      <point x="621" y="1278" type="curve" smooth="yes"/>
      <point x="708" y="1278"/>
      <point x="772" y="1347"/>
      <point x="772" y="1430" type="curve" smooth="yes"/>
      <point x="772" y="1517"/>
      <point x="708" y="1581"/>
      <point x="621" y="1581" type="curve" smooth="yes"/>
      <point x="537" y="1581"/>
      <point x="468" y="1517"/>
      <point x="468" y="1431" type="curve" smooth="yes"/>
      <point x="468" y="1347"/>
      <point x="537" y="1278"/>
    </contour>
  </outline>
</glyph>
<glyph name="k" format="2">
  <advance width="1200"/>
  <unicode hex="006B"/>
  <anchor x="616" y="13" name="bottom"/>
  <outline>
    <contour>
      <point x="842" y="0" type="line"/>
      <point x="1078" y="0" type="line"/>
      <point x="519" y="623" type="line"/>
      <point x="519" y="511" type="line"/>
      <point x="1052" y="1047" type="line"/>
      <point x="819" y="1047" type="line"/>
      <point x="349" y="567" type="line"/>
      <point x="349" y="561" type="line"/>
    </contour>
    <contour>
      <point x="174" y="0" type="line"/>
      <point x="356" y="0" type="line"/>
      <point x="356" y="1460" type="line"/>
      <point x="174" y="1460" type="line"/>
    </contour>
  </outline>
</glyph>
<glyph name="n" format="2">
  <advance width="1200"/>
  <unicode hex="006E"/>
  <anchor x="635" y="13" name="bottom"/>
  <anchor x="617" y="1047" name="top"/>
  <outline>
    <contour>
      <point x="185" y="0" type="line"/>
      <point x="366" y="0" type="line"/>
      <point x="366" y="601" type="line" smooth="yes"/>
      <point x="366" y="799"/>
      <point x="477" y="918"/>
      <point x="643" y="918" type="curve" smooth="yes"/>
      <point x="788" y="918"/>
      <point x="864" y="829"/>
      <point x="864" y="660" type="curve" smooth="yes"/>
      <point x="864" y="0" type="line"/>
      <point x="1045" y="0" type="line"/>
      <point x="1045" y="688" type="line" smooth="yes"/>
      <point x="1045" y="927"/>
      <point x="923" y="1079"/>
      <point x="707" y="1079" type="curve" smooth="yes"/>
      <point x="557" y="1079"/>
      <point x="441" y="1011"/>
      <point x="361" y="887" type="curve"/>
      <point x="354" y="887" type="line"/>
      <point x="354" y="1047" type="line"/>
      <point x="185" y="1047" type="line"/>
    </contour>
  </outline>
</glyph>
<glyph name="s" format="2">
  <advance width="1200"/>
  <unicode hex="0073"/>
  <anchor x="637" y="0" name="bottom"/>
  <anchor x="621" y="1047" name="top"/>
  <outline>
    <contour>
      <point x="655" y="-32" type="curve" smooth="yes"/>
      <point x="881" y="-32"/>
      <point x="1032" y="92"/>
      <point x="1032" y="278" type="curve" smooth="yes"/>
      <point x="1032" y="282" type="line" smooth="yes"/>
      <point x="1032" y="447"/>
      <point x="939" y="543"/>
      <point x="731" y="598" type="curve" smooth="yes"/>
      <point x="586" y="636" type="line" smooth="yes"/>
      <point x="467" y="667"/>
      <point x="419" y="707"/>
      <point x="419" y="778" type="curve" smooth="yes"/>
      <point x="419" y="784" type="line" smooth="yes"/>
      <point x="419" y="868"/>
      <point x="492" y="917"/>
      <point x="618" y="917" type="curve" smooth="yes"/>
      <point x="744" y="917"/>
      <point x="829" y="872"/>
      <point x="874" y="783" type="curve"/>
      <point x="1028" y="856" type="line"/>
      <point x="955" y="1006"/>
      <point x="823" y="1079"/>
      <point x="623" y="1079" type="curve" smooth="yes"/>
      <point x="387" y="1079"/>
      <point x="239" y="960"/>
      <point x="239" y="771" type="curve" smooth="yes"/>
      <point x="239" y="769" type="line" smooth="yes"/>
      <point x="239" y="619"/>
      <point x="336" y="520"/>
      <point x="512" y="474" type="curve" smooth="yes"/>
      <point x="657" y="436" type="line" smooth="yes"/>
      <point x="800" y="399"/>
      <point x="852" y="357"/>
      <point x="852" y="278" type="curve" smooth="yes"/>
      <point x="852" y="268" type="line" smooth="yes"/>
      <point x="852" y="183"/>
      <point x="775" y="130"/>
      <point x="651" y="130" type="curve" smooth="yes"/>
      <point x="499" y="130"/>
      <point x="379" y="201"/>
      <point x="322" y="325" type="curve"/>
      <point x="168" y="252" type="line"/>
      <point x="254" y="66"/>
      <point x="423" y="-32"/>
    </contour>
  </outline>
</glyph>
<glyph name="t" format="2">
  <advance width="1200"/>
  <unicode hex="0074"/>
  <anchor x="702" y="-32" name="bottom"/>
  <outline>
    <contour>
      <point x="786" y="-32" type="curve" smooth="yes"/>
      <point x="902" y="-32"/>
      <point x="1004" y="10"/>
      <point x="1084" y="90" type="curve"/>
      <point x="982" y="226" type="line"/>
      <point x="923" y="167"/>
      <point x="859" y="138"/>
      <point x="786" y="138" type="curve" smooth="yes"/>
      <point x="648" y="138"/>
      <point x="584" y="210"/>
      <point x="584" y="366" type="curve" smooth="yes"/>
      <point x="584" y="1326" type="line"/>
      <point x="401" y="1326" type="line"/>
      <point x="401" y="352" type="line" smooth="yes"/>
      <point x="401" y="110"/>
      <point x="543" y="-32"/>
    </contour>
    <contour>
      <point x="116" y="891" type="line"/>
      <point x="1021" y="891" type="line"/>
      <point x="1021" y="1047" type="line"/>
      <point x="116" y="1047" type="line"/>
    </contour>
  </outline>
</glyph>
<glyph name="x" format="2">
  <advance width="1200"/>
  <unicode hex="0078"/>
  <outline>
    <contour>
      <point x="864" y="0" type="line"/>
      <point x="1068" y="0" type="line"/>
      <point x="673" y="582" type="line"/>
      <point x="655" y="592" type="line"/>
      <point x="352" y="1047" type="line"/>
      <point x="148" y="1047" type="line"/>
      <point x="518" y="502" type="line"/>
      <point x="536" y="492" type="line"/>
    </contour>
    <contour>
      <point x="132" y="0" type="line"/>
      <point x="328" y="0" type="line"/>
      <point x="656" y="483" type="line"/>
      <point x="675" y="500" type="line"/>
      <point x="1052" y="1047" type="line"/>
      <point x="856" y="1047" type="line"/>
      <point x="544" y="587" type="line"/>
      <point x="529" y="575" type="line"/>
    </contour>
  </outline>
</glyph>
<glyph name="asciitilde" format="2">
  <advance width="1200"/>
  <unicode hex="007E"/>
  <outline>
    <contour>
      <point x="823" y="573" type="curve" smooth="yes"/>
      <point x="986" y="573"/>
      <point x="1088" y="691"/>
      <point x="1088" y="882" type="curve" smooth="yes"/>
      <point x="1088" y="1001" type="line"/>
      <point x="914" y="1001" type="line"/>
      <point x="914" y="883" type="line" smooth="yes"/>
      <point x="914" y="791"/>
      <point x="877" y="742"/>
      <point x="810" y="742" type="curve" smooth="yes"/>
      <point x="763" y="742"/>
      <point x="726" y="767"/>
      <point x="658" y="843" type="curve" smooth="yes"/>
      <point x="547" y="967"/>
      <point x="481" y="1008"/>
      <point x="379" y="1008" type="curve" smooth="yes"/>
      <point x="215" y="1008"/>
      <point x="112" y="890"/>
      <point x="112" y="700" type="curve" smooth="yes"/>
      <point x="112" y="580" type="line"/>
      <point x="286" y="580" type="line"/>
      <point x="286" y="699" type="line" smooth="yes"/>
      <point x="286" y="790"/>
      <point x="323" y="839"/>
      <point x="391" y="839" type="curve" smooth="yes"/>
      <point x="438" y="839"/>
      <point x="474" y="815"/>
      <point x="542" y="739" type="curve" smooth="yes"/>
      <point x="655" y="614"/>
      <point x="721" y="573"/>
    </contour>
  </outline>
</glyph>
<glyph name="sterling" format="2">
  <advance width="1200"/>
  <unicode hex="00A3"/>
  <outline>
    <contour>
      <point x="224" y="-13" type="line"/>
      <point x="269" y="72"/>
      <point x="327" y="112"/>
      <point x="402" y="112" type="curve" smooth="yes"/>
      <point x="552" y="112"/>
      <point x="651" y="0"/>
      <point x="812" y="0" type="curve" smooth="yes"/>
      <point x="960" y="0"/>
      <point x="1063" y="99"/>
      <point x="1143" y="295" type="curve"/>
      <point x="978" y="359" type="line"/>
      <point x="919" y="220"/>
      <point x="871" y="172"/>
      <point x="786" y="172" type="curve" smooth="yes"/>
      <point x="662" y="172"/>
      <point x="601" y="267"/>
      <point x="437" y="273" type="curve"/>
      <point x="437" y="285" type="line"/>
      <point x="520" y="332"/>
      <point x="556" y="383"/>
      <point x="556" y="473" type="curve" smooth="yes"/>
      <point x="556" y="633"/>
      <point x="446" y="810"/>
      <point x="446" y="1047" type="curve" smooth="yes"/>
      <point x="446" y="1199"/>
      <point x="540" y="1291"/>
      <point x="695" y="1291" type="curve" smooth="yes"/>
      <point x="798" y="1291"/>
      <point x="869" y="1259"/>
      <point x="956" y="1187" type="curve"/>
      <point x="1063" y="1324" type="line"/>
      <point x="945" y="1425"/>
      <point x="842" y="1463"/>
      <point x="689" y="1463" type="curve" smooth="yes"/>
      <point x="431" y="1463"/>
      <point x="258" y="1300"/>
      <point x="258" y="1060" type="curve" smooth="yes"/>
      <point x="258" y="836"/>
      <point x="386" y="652"/>
      <point x="386" y="470" type="curve" smooth="yes"/>
      <point x="386" y="384"/>
      <point x="354" y="335"/>
      <point x="250" y="267" type="curve" smooth="yes"/>
      <point x="169" y="214"/>
      <point x="118" y="157"/>
      <point x="69" y="64" type="curve"/>
    </contour>
    <contour>
      <point x="79" y="698" type="line"/>
      <point x="955" y="698" type="line"/>
      <point x="955" y="853" type="line"/>
      <point x="79" y="853" type="line"/>
    </contour>
  </outline>
</glyph>
<glyph name="currency" format="2">
  <advance width="1200"/>
  <unicode hex="00A4"/>
  <outline>
    <contour>
      <point x="600" y="261" type="curve" smooth="yes"/>
      <point x="843" y="261"/>
      <point x="1038" y="452"/>
      <point x="1038" y="689" type="curve" smooth="yes"/>
      <point x="1038" y="717" type="line" smooth="yes"/>
      <point x="1038" y="955"/>
      <point x="843" y="1145"/>
      <point x="600" y="1145" type="curve" smooth="yes"/>
      <point x="357" y="1145"/>
      <point x="162" y="955"/>
      <point x="162" y="717" type="curve" smooth="yes"/>
      <point x="162" y="689" type="line" smooth="yes"/>
      <point x="162" y="452"/>
      <point x="357" y="261"/>
    </contour>
    <contour>
      <point x="169" y="156" type="line"/>
      <point x="406" y="394" type="line"/>
      <point x="291" y="510" type="line"/>
      <point x="53" y="272" type="line"/>
    </contour>
    <contour>
      <point x="600" y="414" type="curve" smooth="yes"/>
      <point x="444" y="414"/>
      <point x="330" y="531"/>
      <point x="330" y="691" type="curve" smooth="yes"/>
      <point x="330" y="715" type="line" smooth="yes"/>
      <point x="330" y="875"/>
      <point x="444" y="993"/>
      <point x="600" y="993" type="curve" smooth="yes"/>
      <point x="757" y="993"/>
      <point x="870" y="875"/>
      <point x="870" y="715" type="curve" smooth="yes"/>
      <point x="870" y="691" type="line" smooth="yes"/>
      <point x="870" y="531"/>
      <point x="757" y="414"/>
    </contour>
    <contour>
      <point x="291" y="897" type="line"/>
      <point x="407" y="1013" type="line"/>
      <point x="169" y="1250" type="line"/>
      <point x="53" y="1135" type="line"/>
    </contour>
    <contour>
      <point x="1032" y="156" type="line"/>
      <point x="1147" y="272" type="line"/>
      <point x="909" y="509" type="line"/>
      <point x="794" y="394" type="line"/>
    </contour>
    <contour>
      <point x="910" y="897" type="line"/>
      <point x="1147" y="1135" type="line"/>
      <point x="1032" y="1250" type="line"/>
      <point x="794" y="1012" type="line"/>
    </contour>
  </outline>
</glyph>
<glyph name="yen" format="2">
  <advance width="1200"/>
  <unicode hex="00A5"/>
  <outline>
    <contour>
      <point x="514" y="545" type="line"/>
      <point x="686" y="545" type="line"/>
      <point x="1135" y="1432" type="line"/>
      <point x="933" y="1432" type="line"/>
      <point x="706" y="964" type="line"/>
      <point x="607" y="725" type="line"/>
      <point x="600" y="725" type="line"/>
      <point x="498" y="964" type="line"/>
      <point x="273" y="1432" type="line"/>
      <point x="65" y="1432" type="line"/>
    </contour>
    <contour>
      <point x="509" y="0" type="line"/>
      <point x="691" y="0" type="line"/>
      <point x="691" y="627" type="line"/>
      <point x="509" y="627" type="line"/>
    </contour>
    <contour>
      <point x="167" y="553" type="line"/>
      <point x="1034" y="553" type="line"/>
      <point x="1034" y="691" type="line"/>
      <point x="167" y="691" type="line"/>
    </contour>
    <contour>
      <point x="167" y="264" type="line"/>
      <point x="1034" y="264" type="line"/>
      <point x="1034" y="402" type="line"/>
      <point x="167" y="402" type="line"/>
    </contour>
  </outline>
</glyph>
<glyph name="copyright" format="2">
  <advance width="1200"/>
  <unicode hex="00A9"/>
  <outline>
    <contour>
      <point x="600" y="-32" type="curve" smooth="yes"/>
      <point x="961" y="-32"/>
      <point x="1192" y="235"/>
      <point x="1192" y="652" type="curve" smooth="yes"/>
      <point x="1192" y="780" type="line" smooth="yes"/>
      <point x="1192" y="1197"/>
      <point x="961" y="1464"/>
      <point x="600" y="1464" type="curve" smooth="yes"/>
      <point x="239" y="1464"/>
      <point x="8" y="1197"/>
      <point x="8" y="780" type="curve" smooth="yes"/>
      <point x="8" y="652" type="line" smooth="yes"/>
      <point x="8" y="235"/>
      <point x="239" y="-32"/>
    </contour>
    <contour>
      <point x="600" y="58" type="curve" smooth="yes"/>
      <point x="292" y="58"/>
      <point x="108" y="280"/>
      <point x="108" y="651" type="curve" smooth="yes"/>
      <point x="108" y="781" type="line" smooth="yes"/>
      <point x="108" y="1152"/>
      <point x="292" y="1374"/>
      <point x="600" y="1374" type="curve" smooth="yes"/>
      <point x="908" y="1374"/>
      <point x="1092" y="1152"/>
      <point x="1092" y="781" type="curve" smooth="yes"/>
      <point x="1092" y="651" type="line" smooth="yes"/>
      <point x="1092" y="280"/>
      <point x="908" y="58"/>
    </contour>
    <contour>
      <point x="622" y="299" type="curve" smooth="yes"/>
      <point x="794" y="299"/>
      <point x="904" y="407"/>
      <point x="923" y="591" type="curve"/>
      <point x="788" y="604" type="line"/>
      <point x="777" y="489"/>
      <point x="720" y="431"/>
      <point x="620" y="431" type="curve" smooth="yes"/>
      <point x="492" y="431"/>
      <point x="416" y="527"/>
      <point x="416" y="691" type="curve" smooth="yes"/>
      <point x="416" y="749" type="line" smooth="yes"/>
      <point x="416" y="913"/>
      <point x="492" y="1009"/>
      <point x="620" y="1009" type="curve" smooth="yes"/>
      <point x="720" y="1009"/>
      <point x="777" y="951"/>
      <point x="788" y="836" type="curve"/>
      <point x="923" y="849" type="line"/>
      <point x="904" y="1035"/>
      <point x="794" y="1141"/>
      <point x="622" y="1141" type="curve" smooth="yes"/>
      <point x="414" y="1141"/>
      <point x="281" y="986"/>
      <point x="281" y="744" type="curve" smooth="yes"/>
      <point x="281" y="697" type="line" smooth="yes"/>
      <point x="281" y="455"/>
      <point x="414" y="299"/>
    </contour>
  </outline>
</glyph>
<glyph name="ordfeminine" format="2">
  <advance width="1200"/>
  <unicode hex="00AA"/>
  <outline>
    <contour>
      <point x="446" y="610" type="curve" smooth="yes"/>
      <point x="558" y="610"/>
      <point x="646" y="665"/>
      <point x="705" y="767" type="curve"/>
      <point x="719" y="767" type="line"/>
      <point x="719" y="614" type="line"/>
      <point x="875" y="614" type="line"/>
      <point x="875" y="1152" type="line" smooth="yes"/>
      <point x="875" y="1357"/>
      <point x="759" y="1464"/>
      <point x="538" y="1464" type="curve" smooth="yes"/>
      <point x="418" y="1464"/>
      <point x="305" y="1435"/>
      <point x="205" y="1379" type="curve"/>
      <point x="267" y="1250" type="line"/>
      <point x="349" y="1298"/>
      <point x="434" y="1322"/>
      <point x="525" y="1322" type="curve" smooth="yes"/>
      <point x="655" y="1322"/>
      <point x="711" y="1269"/>
      <point x="711" y="1145" type="curve" smooth="yes"/>
      <point x="711" y="961" type="line" smooth="yes"/>
      <point x="711" y="828"/>
      <point x="629" y="738"/>
      <point x="496" y="738" type="curve" smooth="yes"/>
      <point x="390" y="738"/>
      <point x="336" y="782"/>
      <point x="336" y="871" type="curve" smooth="yes"/>
      <point x="336" y="885" type="line" smooth="yes"/>
      <point x="336" y="978"/>
      <point x="401" y="1025"/>
      <point x="523" y="1025" type="curve" smooth="yes"/>
      <point x="608" y="1025"/>
      <point x="665" y="1010"/>
      <point x="729" y="971" type="curve"/>
      <point x="729" y="1077" type="line"/>
      <point x="656" y="1124"/>
      <point x="580" y="1145"/>
      <point x="481" y="1145" type="curve" smooth="yes"/>
      <point x="291" y="1145"/>
      <point x="164" y="1039"/>
      <point x="164" y="880" type="curve" smooth="yes"/>
      <point x="164" y="866" type="line" smooth="yes"/>
      <point x="164" y="715"/>
      <point x="280" y="610"/>
    </contour>
  </outline>
</glyph>
<glyph name="guillemetleft" format="2">
  <advance width="1200"/>
  <unicode hex="00AB"/>
  <outline>
    <contour>
      <point x="999" y="24" type="line"/>
      <point x="1110" y="124" type="line"/>
      <point x="756" y="532" type="line"/>
      <point x="1110" y="940" type="line"/>
      <point x="999" y="1041" type="line"/>
      <point x="534" y="532" type="line"/>
    </contour>
    <contour>
      <point x="525" y="24" type="line"/>
      <point x="636" y="123" type="line"/>
      <point x="282" y="532" type="line"/>
      <point x="636" y="941" type="line"/>
      <point x="525" y="1041" type="line"/>
      <point x="60" y="532" type="line"/>
    </contour>
  </outline>
</glyph>
<glyph name="logicalnot" format="2">
  <advance width="1200"/>
  <unicode hex="00AC"/>
  <outline>
    <contour>
      <point x="860" y="149" type="line"/>
      <point x="1046" y="149" type="line"/>
      <point x="1046" y="720" type="line"/>
      <point x="154" y="720" type="line"/>
      <point x="154" y="540" type="line"/>
      <point x="930" y="540" type="line"/>
      <point x="860" y="602" type="line"/>
    </contour>
  </outline>
</glyph>
<glyph name="degree" format="2">
  <advance width="1200"/>
  <unicode hex="00B0"/>
  <outline>
    <contour>
      <point x="562" y="793" type="curve" smooth="yes"/>
      <point x="757" y="793"/>
      <point x="904" y="937"/>
      <point x="904" y="1128" type="curve" smooth="yes"/>
      <point x="904" y="1319"/>
      <point x="757" y="1463"/>
      <point x="562" y="1463" type="curve" smooth="yes"/>
      <point x="367" y="1463"/>
      <point x="220" y="1319"/>
      <point x="220" y="1128" type="curve" smooth="yes"/>
      <point x="220" y="937"/>
      <point x="367" y="793"/>
    </contour>
    <contour>
      <point x="562" y="947" type="curve" smooth="yes"/>
      <point x="459" y="947"/>
      <point x="386" y="1022"/>
      <point x="386" y="1128" type="curve" smooth="yes"/>
      <point x="386" y="1234"/>
      <point x="459" y="1309"/>
      <point x="562" y="1309" type="curve" smooth="yes"/>
      <point x="665" y="1309"/>
      <point x="738" y="1234"/>
      <point x="738" y="1128" type="curve" smooth="yes"/>
      <point x="738" y="1022"/>
      <point x="665" y="947"/>
    </contour>
  </outline>
</glyph>
<glyph name="twosuperior" format="2">
  <advance width="1200"/>
  <unicode hex="00B2"/>
  <outline>
    <contour>
      <point x="242" y="697" type="line"/>
      <point x="910" y="697" type="line"/>
      <point x="910" y="861" type="line"/>
      <point x="488" y="861" type="line"/>
      <point x="488" y="867" type="line"/>
      <point x="723" y="1108" type="line" smooth="yes"/>
      <point x="847" y="1235"/>
      <point x="889" y="1313"/>
      <point x="889" y="1419" type="curve" smooth="yes"/>
      <point x="889" y="1426" type="line" smooth="yes"/>
      <point x="889" y="1594"/>
      <point x="766" y="1710"/>
      <point x="589" y="1710" type="curve" smooth="yes"/>
      <point x="428" y="1710"/>
      <point x="302" y="1620"/>
      <point x="235" y="1458" type="curve"/>
      <point x="399" y="1392" type="line"/>
      <point x="442" y="1495"/>
      <point x="501" y="1544"/>
      <point x="581" y="1544" type="curve" smooth="yes"/>
      <point x="660" y="1544"/>
      <point x="707" y="1496"/>
      <point x="707" y="1416" type="curve" smooth="yes"/>
      <point x="707" y="1410" type="line" smooth="yes"/>
      <point x="707" y="1340"/>
      <point x="678" y="1288"/>
      <point x="594" y="1202" type="curve" smooth="yes"/>
      <point x="242" y="840" type="line"/>
    </contour>
  </outline>
</glyph>
<glyph name="threesuperior" format="2">
  <advance width="1200"/>
  <unicode hex="00B3"/>
  <outline>
    <contour>
      <point x="602" y="691" type="curve" smooth="yes"/>
      <point x="796" y="691"/>
      <point x="932" y="805"/>
      <point x="932" y="966" type="curve" smooth="yes"/>
      <point x="932" y="972" type="line" smooth="yes"/>
      <point x="932" y="1096"/>
      <point x="862" y="1184"/>
      <point x="736" y="1212" type="curve"/>
      <point x="736" y="1223" type="line"/>
      <point x="846" y="1256"/>
      <point x="908" y="1331"/>
      <point x="908" y="1438" type="curve" smooth="yes"/>
      <point x="908" y="1444" type="line" smooth="yes"/>
      <point x="908" y="1603"/>
      <point x="783" y="1710"/>
      <point x="598" y="1710" type="curve" smooth="yes"/>
      <point x="425" y="1710"/>
      <point x="294" y="1624"/>
      <point x="240" y="1475" type="curve"/>
      <point x="410" y="1418" type="line"/>
      <point x="438" y="1498"/>
      <point x="502" y="1544"/>
      <point x="588" y="1544" type="curve" smooth="yes"/>
      <point x="673" y="1544"/>
      <point x="726" y="1497"/>
      <point x="726" y="1420" type="curve" smooth="yes"/>
      <point x="726" y="1411" type="line" smooth="yes"/>
      <point x="726" y="1330"/>
      <point x="665" y="1284"/>
      <point x="562" y="1284" type="curve" smooth="yes"/>
      <point x="454" y="1284" type="line"/>
      <point x="454" y="1136" type="line"/>
      <point x="577" y="1136" type="line" smooth="yes"/>
      <point x="691" y="1136"/>
      <point x="750" y="1087"/>
      <point x="750" y="996" type="curve" smooth="yes"/>
      <point x="750" y="987" type="line" smooth="yes"/>
      <point x="750" y="908"/>
      <point x="690" y="857"/>
      <point x="593" y="857" type="curve" smooth="yes"/>
      <point x="489" y="857"/>
      <point x="416" y="911"/>
      <point x="383" y="1014" type="curve"/>
      <point x="214" y="954" type="line"/>
      <point x="269" y="784"/>
      <point x="406" y="691"/>
    </contour>
  </outline>
</glyph>
<glyph name="paragraph" format="2">
  <advance width="1200"/>
  <unicode hex="00B6"/>
  <guideline x="-977" y="-415" angle="0"/>
  <guideline x="734" y="522" angle="0"/>
  <outline>
    <contour>
      <point x="598" y="-413" type="line"/>
      <point x="759" y="-413" type="line"/>
      <point x="759" y="1432" type="line"/>
      <point x="531" y="1432" type="line" smooth="yes"/>
      <point x="245" y="1432"/>
      <point x="78" y="1280"/>
      <point x="78" y="1028" type="curve" smooth="yes"/>
      <point x="78" y="1018" type="line" smooth="yes"/>
      <point x="78" y="765"/>
      <point x="245" y="613"/>
      <point x="531" y="613" type="curve" smooth="yes"/>
      <point x="707" y="613" type="line"/>
      <point x="598" y="709" type="line"/>
    </contour>
    <contour>
      <point x="911" y="-413" type="line"/>
      <point x="1072" y="-413" type="line"/>
      <point x="1072" y="1432" type="line"/>
      <point x="911" y="1432" type="line"/>
    </contour>
  </outline>
</glyph>
<glyph name="onequarter" format="2">
  <advance width="1200"/>
  <unicode hex="00BC"/>
  <outline>
    <contour>
      <point x="900" y="-31" type="line"/>
      <point x="1037" y="-31" type="line"/>
      <point x="1037" y="686" type="line"/>
      <point x="884" y="686" type="line"/>
      <point x="544" y="241" type="line"/>
      <point x="544" y="114" type="line"/>
      <point x="1143" y="114" type="line"/>
      <point x="1143" y="244" type="line"/>
      <point x="979" y="244" type="line"/>
      <point x="955" y="234" type="line"/>
      <point x="698" y="234" type="line"/>
      <point x="698" y="244" type="line"/>
      <point x="901" y="511" type="line"/>
      <point x="939" y="511" type="line"/>
      <point x="911" y="545" type="line"/>
      <point x="911" y="191" type="line"/>
      <point x="900" y="171" type="line"/>
    </contour>
    <contour>
      <point x="286" y="750" type="line"/>
      <point x="443" y="750" type="line"/>
      <point x="443" y="1460" type="line"/>
      <point x="348" y="1460" type="line"/>
      <point x="24" y="1319" type="line"/>
      <point x="83" y="1180" type="line"/>
      <point x="286" y="1272" type="line"/>
    </contour>
    <contour>
      <point x="75" y="-31" type="line"/>
      <point x="219" y="-31" type="line"/>
      <point x="1163" y="1460" type="line"/>
      <point x="1020" y="1460" type="line"/>
    </contour>
  </outline>
</glyph>
<glyph name="onehalf" format="2">
  <advance width="1200"/>
  <unicode hex="00BD"/>
  <outline>
    <contour>
      <point x="23" y="-31" type="line"/>
      <point x="167" y="-31" type="line"/>
      <point x="1111" y="1460" type="line"/>
      <point x="967" y="1460" type="line"/>
    </contour>
    <contour>
      <point x="604" y="-31" type="line"/>
      <point x="1154" y="-31" type="line"/>
      <point x="1154" y="112" type="line"/>
      <point x="830" y="112" type="line"/>
      <point x="830" y="121" type="line"/>
      <point x="973" y="221" type="line" smooth="yes"/>
      <point x="1097" y="308"/>
      <point x="1139" y="371"/>
      <point x="1139" y="465" type="curve" smooth="yes"/>
      <point x="1139" y="469" type="line" smooth="yes"/>
      <point x="1139" y="590"/>
      <point x="1050" y="689"/>
      <point x="898" y="689" type="curve" smooth="yes"/>
      <point x="737" y="689"/>
      <point x="618" y="589"/>
      <point x="600" y="433" type="curve"/>
      <point x="756" y="413" type="line"/>
      <point x="766" y="502"/>
      <point x="813" y="544"/>
      <point x="890" y="544" type="curve" smooth="yes"/>
      <point x="953" y="544"/>
      <point x="983" y="511"/>
      <point x="983" y="462" type="curve" smooth="yes"/>
      <point x="983" y="459" type="line" smooth="yes"/>
      <point x="983" y="411"/>
      <point x="958" y="378"/>
      <point x="861" y="306" type="curve" smooth="yes"/>
      <point x="604" y="115" type="line"/>
    </contour>
    <contour>
      <point x="270" y="750" type="line"/>
      <point x="427" y="750" type="line"/>
      <point x="427" y="1460" type="line"/>
      <point x="332" y="1460" type="line"/>
      <point x="8" y="1319" type="line"/>
      <point x="67" y="1180" type="line"/>
      <point x="270" y="1272" type="line"/>
    </contour>
  </outline>
</glyph>
<glyph name="multiply" format="2">
  <advance width="1200"/>
  <unicode hex="00D7"/>
  <outline>
    <contour>
      <point x="285" y="188" type="line"/>
      <point x="1036" y="947" type="line"/>
      <point x="916" y="1067" type="line"/>
      <point x="164" y="308" type="line"/>
    </contour>
    <contour>
      <point x="916" y="188" type="line"/>
      <point x="1036" y="308" type="line"/>
      <point x="285" y="1067" type="line"/>
      <point x="164" y="947" type="line"/>
    </contour>
  </outline>
</glyph>
<glyph name="ae" format="2">
  <advance width="1200"/>
  <unicode hex="00E6"/>
  <anchor x="618" y="1047" name="top"/>
  <outline>
    <contour>
      <point x="329" y="-32" type="curve" smooth="yes"/>
      <point x="491" y="-32"/>
      <point x="600" y="86"/>
      <point x="635" y="302" type="curve"/>
      <point x="548" y="302" type="line"/>
      <point x="581" y="98"/>
      <point x="704" y="-32"/>
      <point x="864" y="-32" type="curve" smooth="yes"/>
      <point x="996" y="-32"/>
      <point x="1095" y="47"/>
      <point x="1167" y="210" type="curve"/>
      <point x="1027" y="277" type="line"/>
      <point x="978" y="169"/>
      <point x="928" y="124"/>
      <point x="859" y="124" type="curve" smooth="yes"/>
      <point x="738" y="124"/>
      <point x="665" y="268"/>
      <point x="665" y="510" type="curve" smooth="yes"/>
      <point x="665" y="542" type="line" smooth="yes"/>
      <point x="665" y="775"/>
      <point x="738" y="921"/>
      <point x="854" y="921" type="curve" smooth="yes"/>
      <point x="953" y="921"/>
      <point x="1004" y="820"/>
      <point x="1004" y="621" type="curve"/>
      <point x="1004" y="613" type="line"/>
      <point x="611" y="613" type="line"/>
      <point x="611" y="473" type="line"/>
      <point x="1168" y="473" type="line"/>
      <point x="1171" y="527"/>
      <point x="1172" y="576"/>
      <point x="1172" y="615" type="curve" smooth="yes"/>
      <point x="1172" y="910"/>
      <point x="1062" y="1079"/>
      <point x="870" y="1079" type="curve" smooth="yes"/>
      <point x="726" y="1079"/>
      <point x="608" y="965"/>
      <point x="568" y="786" type="curve"/>
      <point x="648" y="786" type="line"/>
      <point x="624" y="977"/>
      <point x="523" y="1079"/>
      <point x="360" y="1079" type="curve" smooth="yes"/>
      <point x="243" y="1079"/>
      <point x="142" y="1025"/>
      <point x="63" y="921" type="curve"/>
      <point x="183" y="818" type="line"/>
      <point x="237" y="888"/>
      <point x="294" y="921"/>
      <point x="360" y="921" type="curve" smooth="yes"/>
      <point x="460" y="921"/>
      <point x="506" y="851"/>
      <point x="506" y="698" type="curve" smooth="yes"/>
      <point x="506" y="414" type="line" smooth="yes"/>
      <point x="506" y="225"/>
      <point x="450" y="123"/>
      <point x="345" y="123" type="curve" smooth="yes"/>
      <point x="256" y="123"/>
      <point x="199" y="197"/>
      <point x="199" y="313" type="curve" smooth="yes"/>
      <point x="199" y="330" type="line" smooth="yes"/>
      <point x="199" y="452"/>
      <point x="264" y="524"/>
      <point x="375" y="524" type="curve" smooth="yes"/>
      <point x="433" y="524"/>
      <point x="476" y="511"/>
      <point x="522" y="481" type="curve"/>
      <point x="522" y="621" type="line"/>
      <point x="468" y="653"/>
      <point x="409" y="669"/>
      <point x="340" y="669" type="curve" smooth="yes"/>
      <point x="150" y="669"/>
      <point x="23" y="531"/>
      <point x="23" y="323" type="curve" smooth="yes"/>
      <point x="23" y="314" type="line" smooth="yes"/>
      <point x="23" y="109"/>
      <point x="148" y="-32"/>
    </contour>
  </outline>
</glyph>
<glyph name="eth" format="2">
  <advance width="1200"/>
  <unicode hex="00F0"/>
  <outline>
    <contour>
      <point x="605" y="-32" type="curve" smooth="yes"/>
      <point x="913" y="-32"/>
      <point x="1092" y="183"/>
      <point x="1092" y="552" type="curve" smooth="yes"/>
      <point x="1092" y="564" type="line" smooth="yes"/>
      <point x="1092" y="1061"/>
      <point x="924" y="1369"/>
      <point x="510" y="1613" type="curve"/>
      <point x="430" y="1480" type="line"/>
      <point x="731" y="1320"/>
      <point x="853" y="1106"/>
      <point x="895" y="850" type="curve"/>
      <point x="861" y="836" type="line"/>
      <point x="908" y="808" type="line"/>
      <point x="853" y="928"/>
      <point x="745" y="1009"/>
      <point x="580" y="1009" type="curve" smooth="yes"/>
      <point x="310" y="1009"/>
      <point x="122" y="803"/>
      <point x="122" y="502" type="curve" smooth="yes"/>
      <point x="122" y="487" type="line" smooth="yes"/>
      <point x="122" y="177"/>
      <point x="317" y="-32"/>
    </contour>
    <contour>
      <point x="607" y="136" type="curve" smooth="yes"/>
      <point x="415" y="136"/>
      <point x="308" y="271"/>
      <point x="308" y="491" type="curve" smooth="yes"/>
      <point x="308" y="500" type="line" smooth="yes"/>
      <point x="308" y="720"/>
      <point x="415" y="855"/>
      <point x="607" y="855" type="curve" smooth="yes"/>
      <point x="799" y="855"/>
      <point x="906" y="720"/>
      <point x="906" y="500" type="curve" smooth="yes"/>
      <point x="906" y="491" type="line" smooth="yes"/>
      <point x="906" y="273"/>
      <point x="801" y="136"/>
    </contour>
    <contour>
      <point x="323" y="1139" type="line"/>
      <point x="778" y="1259" type="line"/>
      <point x="693" y="1370" type="line"/>
      <point x="289" y="1272" type="line"/>
    </contour>
    <contour>
      <point x="802" y="1277" type="line"/>
      <point x="1074" y="1341" type="line"/>
      <point x="1039" y="1474" type="line"/>
      <point x="718" y="1387" type="line"/>
    </contour>
  </outline>
</glyph>
<glyph name="divide" format="2">
  <advance width="1200"/>
  <unicode hex="00F7"/>
  <outline>
    <contour>
      <point x="154" y="540" type="line"/>
      <point x="1046" y="540" type="line"/>
      <point x="1046" y="720" type="line"/>
      <point x="154" y="720" type="line"/>
    </contour>
    <contour>
      <point x="600" y="876" type="curve" smooth="yes"/>
      <point x="677" y="876"/>
      <point x="739" y="936"/>
      <point x="739" y="1014" type="curve" smooth="yes"/>
      <point x="739" y="1092"/>
      <point x="677" y="1152"/>
      <point x="600" y="1152" type="curve" smooth="yes"/>
      <point x="523" y="1152"/>
      <point x="461" y="1092"/>
      <point x="461" y="1014" type="curve" smooth="yes"/>
      <point x="461" y="936"/>
      <point x="523" y="876"/>
    </contour>
    <contour>
      <point x="600" y="108" type="curve" smooth="yes"/>
      <point x="677" y="108"/>
      <point x="739" y="168"/>
      <point x="739" y="246" type="curve" smooth="yes"/>
      <point x="739" y="324"/>
      <point x="677" y="384"/>
      <point x="600" y="384" type="curve" smooth="yes"/>
      <point x="523" y="384"/>
      <point x="461" y="324"/>
      <point x="461" y="246" type="curve" smooth="yes"/>
      <point x="461" y="168"/>
      <point x="523" y="108"/>
    </contour>
  </outline>
</glyph>
<glyph name="Dcroat" format="2">
  <advance width="1200"/>
  <unicode hex="0110"/>
  <outline>
    <contour>
      <point x="194" y="0" type="line"/>
      <point x="545" y="0" type="line" smooth="yes"/>
      <point x="910" y="0"/>
      <point x="1123" y="258"/>
      <point x="1123" y="697" type="curve" smooth="yes"/>
      <point x="1123" y="735" type="line" smooth="yes"/>
      <point x="1123" y="1174"/>
      <point x="910" y="1432"/>
      <point x="545" y="1432" type="curve" smooth="yes"/>
      <point x="194" y="1432" type="line"/>
    </contour>
    <contour>
      <point x="23" y="651" type="line"/>
      <point x="695" y="651" type="line"/>
      <point x="695" y="821" type="line"/>
      <point x="23" y="821" type="line"/>
    </contour>
    <contour>
      <point x="368" y="172" type="line"/>
      <point x="368" y="1260" type="line"/>
      <point x="540" y="1260" type="line" smooth="yes"/>
      <point x="807" y="1260"/>
      <point x="941" y="1084"/>
      <point x="941" y="740" type="curve" smooth="yes"/>
      <point x="941" y="692" type="line" smooth="yes"/>
      <point x="941" y="349"/>
      <point x="807" y="172"/>
      <point x="540" y="172" type="curve" smooth="yes"/>
    </contour>
  </outline>
</glyph>
<glyph name="dcroat" format="2">
  <advance width="1200"/>
  <unicode hex="0111"/>
  <outline>
    <contour>
      <point x="528" y="-31" type="curve" smooth="yes"/>
      <point x="671" y="-31"/>
      <point x="785" y="44"/>
      <point x="849" y="172" type="curve"/>
      <point x="855" y="172" type="line"/>
      <point x="855" y="0" type="line"/>
      <point x="1019" y="0" type="line"/>
      <point x="1019" y="1495" type="line"/>
      <point x="846" y="1495" type="line"/>
      <point x="846" y="818" type="line"/>
      <point x="840" y="818" type="line"/>
      <point x="770" y="940"/>
      <point x="665" y="1009"/>
      <point x="520" y="1009" type="curve" smooth="yes"/>
      <point x="268" y="1009"/>
      <point x="100" y="807"/>
      <point x="100" y="506" type="curve" smooth="yes"/>
      <point x="100" y="472" type="line" smooth="yes"/>
      <point x="100" y="171"/>
      <point x="275" y="-31"/>
    </contour>
    <contour>
      <point x="566" y="132" type="curve" smooth="yes"/>
      <point x="391" y="132"/>
      <point x="283" y="265"/>
      <point x="283" y="478" type="curve" smooth="yes"/>
      <point x="283" y="504" type="line" smooth="yes"/>
      <point x="283" y="717"/>
      <point x="390" y="850"/>
      <point x="566" y="850" type="curve" smooth="yes"/>
      <point x="739" y="850"/>
      <point x="848" y="714"/>
      <point x="848" y="503" type="curve" smooth="yes"/>
      <point x="848" y="479" type="line" smooth="yes"/>
      <point x="848" y="268"/>
      <point x="738" y="132"/>
    </contour>
    <contour>
      <point x="476" y="1188" type="line"/>
      <point x="1205" y="1188" type="line"/>
      <point x="1205" y="1324" type="line"/>
      <point x="476" y="1324" type="line"/>
    </contour>
  </outline>
</glyph>
<glyph name="eogonek" format="2">
  <advance width="1200"/>
  <unicode hex="0119"/>
  <outline>
    <contour>
      <point x="775" y="-534" type="curve" smooth="yes"/>
      <point x="840" y="-534"/>
      <point x="897" y="-520"/>
      <point x="951" y="-490" type="curve"/>
      <point x="907" y="-359" type="line"/>
      <point x="872" y="-378"/>
      <point x="838" y="-386"/>
      <point x="796" y="-386" type="curve" smooth="yes"/>
      <point x="718" y="-386"/>
      <point x="662" y="-332"/>
      <point x="662" y="-254" type="curve" smooth="yes"/>
      <point x="662" y="-167"/>
      <point x="705" y="-111"/>
      <point x="828" y="-24" type="curve" smooth="yes"/>
      <point x="949" y="61"/>
      <point x="1010" y="123"/>
      <point x="1055" y="202" type="curve"/>
      <point x="909" y="295" type="line"/>
      <point x="846" y="185"/>
      <point x="757" y="132"/>
      <point x="633" y="132" type="curve" smooth="yes"/>
      <point x="434" y="132"/>
      <point x="310" y="279"/>
      <point x="310" y="514" type="curve" smooth="yes"/>
      <point x="310" y="542" type="line" smooth="yes"/>
      <point x="310" y="776"/>
      <point x="431" y="919"/>
      <point x="621" y="919" type="curve" smooth="yes"/>
      <point x="781" y="919"/>
      <point x="882" y="803"/>
      <point x="882" y="621" type="curve"/>
      <point x="882" y="617" type="line"/>
      <point x="243" y="617" type="line"/>
      <point x="243" y="472" type="line"/>
      <point x="1052" y="472" type="line"/>
      <point x="1059" y="517"/>
      <point x="1062" y="564"/>
      <point x="1062" y="615" type="curve" smooth="yes"/>
      <point x="1062" y="895"/>
      <point x="888" y="1079"/>
      <point x="623" y="1079" type="curve" smooth="yes"/>
      <point x="327" y="1079"/>
      <point x="130" y="867"/>
      <point x="130" y="547" type="curve" smooth="yes"/>
      <point x="130" y="509" type="line" smooth="yes"/>
      <point x="130" y="185"/>
      <point x="327" y="-29"/>
      <point x="629" y="-29" type="curve" smooth="yes"/>
      <point x="687" y="-29"/>
      <point x="740" y="-22"/>
      <point x="789" y="-8" type="curve"/>
      <point x="852" y="87" type="line"/>
      <point x="620" y="-8"/>
      <point x="503" y="-124"/>
      <point x="503" y="-278" type="curve" smooth="yes"/>
      <point x="503" y="-425"/>
      <point x="619" y="-534"/>
    </contour>
  </outline>
</glyph>
<glyph name="Hbar" format="2">
  <advance width="1200"/>
  <unicode hex="0126"/>
  <outline>
    <contour>
      <point x="829" y="0" type="line"/>
      <point x="1009" y="0" type="line"/>
      <point x="1009" y="1432" type="line"/>
      <point x="829" y="1432" type="line"/>
    </contour>
    <contour>
      <point x="192" y="0" type="line"/>
      <point x="372" y="0" type="line"/>
      <point x="372" y="1432" type="line"/>
      <point x="192" y="1432" type="line"/>
    </contour>
    <contour>
      <point x="281" y="611" type="line"/>
      <point x="921" y="611" type="line"/>
      <point x="921" y="779" type="line"/>
      <point x="281" y="779" type="line"/>
    </contour>
    <contour>
      <point x="18" y="1035" type="line"/>
      <point x="1182" y="1035" type="line"/>
      <point x="1182" y="1195" type="line"/>
      <point x="18" y="1195" type="line"/>
    </contour>
  </outline>
</glyph>
<glyph name="idotless" format="2">
  <advance width="1200"/>
  <unicode hex="0131"/>
  <anchor x="786" y="0" name="ogonek"/>
  <anchor x="647" y="1047" name="top"/>
  <outline>
    <contour>
      <point x="558" y="50" type="line"/>
      <point x="736" y="50" type="line"/>
      <point x="736" y="1047" type="line"/>
      <point x="558" y="1047" type="line"/>
    </contour>
    <contour>
      <point x="203" y="0" type="line"/>
      <point x="1077" y="0" type="line"/>
      <point x="1077" y="148" type="line"/>
      <point x="203" y="148" type="line"/>
    </contour>
    <contour>
      <point x="223" y="899" type="line"/>
      <point x="682" y="899" type="line"/>
      <point x="682" y="1047" type="line"/>
      <point x="223" y="1047" type="line"/>
    </contour>
  </outline>
</glyph>
<glyph name="IJ" format="2">
  <advance width="1200"/>
  <unicode hex="0132"/>
  <outline>
    <contour>
      <point x="615" y="-31" type="curve" smooth="yes"/>
      <point x="881" y="-31"/>
      <point x="1040" y="153"/>
      <point x="1040" y="444" type="curve" smooth="yes"/>
      <point x="1040" y="1432" type="line"/>
      <point x="852" y="1432" type="line"/>
      <point x="852" y="449" type="line" smooth="yes"/>
      <point x="852" y="252"/>
      <point x="770" y="149"/>
      <point x="613" y="149" type="curve" smooth="yes"/>
      <point x="475" y="149"/>
      <point x="387" y="225"/>
      <point x="339" y="375" type="curve"/>
      <point x="160" y="318" type="line"/>
      <point x="230" y="96"/>
      <point x="389" y="-31"/>
    </contour>
    <contour>
      <point x="160" y="585" type="line"/>
      <point x="348" y="585" type="line"/>
      <point x="348" y="1432" type="line"/>
      <point x="160" y="1432" type="line"/>
    </contour>
  </outline>
</glyph>
<glyph name="lcaron" format="2">
  <advance width="1200"/>
  <unicode hex="013E"/>
  <outline>
    <contour>
      <point x="778" y="-32" type="curve" smooth="yes"/>
      <point x="899" y="-32"/>
      <point x="1002" y="8"/>
      <point x="1088" y="88" type="curve"/>
      <point x="984" y="225" type="line"/>
      <point x="916" y="163"/>
      <point x="859" y="138"/>
      <point x="788" y="138" type="curve" smooth="yes"/>
      <point x="665" y="138"/>
      <point x="601" y="210"/>
      <point x="601" y="353" type="curve" smooth="yes"/>
      <point x="601" y="1460" type="line"/>
      <point x="421" y="1460" type="line"/>
      <point x="421" y="334" type="line" smooth="yes"/>
      <point x="421" y="106"/>
      <point x="557" y="-32"/>
    </contour>
    <contour>
      <point x="118" y="1302" type="line"/>
      <point x="516" y="1302" type="line"/>
      <point x="516" y="1460" type="line"/>
      <point x="118" y="1460" type="line"/>
    </contour>
    <contour>
      <point x="778" y="963" type="line"/>
      <point x="924" y="963" type="line"/>
      <point x="1003" y="1460" type="line"/>
      <point x="811" y="1460" type="line"/>
    </contour>
  </outline>
</glyph>
<glyph name="Lslash" format="2">
  <advance width="1200"/>
  <unicode hex="0141"/>
  <guideline x="751" y="921" angle="39.2144"/>
  <guideline x="751" y="1121" angle="39.2144"/>
  <outline>
    <contour>
      <point x="284" y="0" type="line"/>
      <point x="1099" y="0" type="line"/>
      <point x="1099" y="176" type="line"/>
      <point x="464" y="176" type="line"/>
      <point x="464" y="1432" type="line"/>
      <point x="284" y="1432" type="line"/>
    </contour>
    <contour>
      <point x="11" y="400" type="line"/>
      <point x="308" y="583" type="line"/>
      <point x="372" y="608" type="line"/>
      <point x="939" y="944" type="line"/>
      <point x="939" y="1136" type="line"/>
      <point x="398" y="812" type="line"/>
      <point x="321" y="780" type="line"/>
      <point x="11" y="593" type="line"/>
    </contour>
  </outline>
</glyph>
<glyph name="napostrophe" format="2">
  <advance width="1200"/>
  <unicode hex="0149"/>
  <outline>
    <contour>
      <point x="349" y="0" type="line"/>
      <point x="523" y="0" type="line"/>
      <point x="523" y="627" type="line" smooth="yes"/>
      <point x="523" y="802"/>
      <point x="617" y="918"/>
      <point x="761" y="918" type="curve" smooth="yes"/>
      <point x="886" y="918"/>
      <point x="951" y="836"/>
      <point x="951" y="680" type="curve" smooth="yes"/>
      <point x="951" y="0" type="line"/>
      <point x="1125" y="0" type="line"/>
      <point x="1125" y="707" type="line" smooth="yes"/>
      <point x="1125" y="938"/>
      <point x="1014" y="1078"/>
      <point x="824" y="1078" type="curve" smooth="yes"/>
      <point x="695" y="1078"/>
      <point x="589" y="1015"/>
      <point x="518" y="896" type="curve"/>
      <point x="511" y="896" type="line"/>
      <point x="511" y="1047" type="line"/>
      <point x="349" y="1047" type="line"/>
    </contour>
    <contour>
      <point x="15" y="882" type="line"/>
      <point x="191" y="882" type="line"/>
      <point x="464" y="1460" type="line"/>
      <point x="248" y="1460" type="line"/>
    </contour>
  </outline>
</glyph>
<glyph name="eng" format="2">
  <advance width="1200"/>
  <unicode hex="014B"/>
  <outline>
    <contour>
      <point x="733" y="-442" type="curve" smooth="yes"/>
      <point x="926" y="-442"/>
      <point x="1045" y="-314"/>
      <point x="1045" y="-104" type="curve" smooth="yes"/>
      <point x="1045" y="687" type="line" smooth="yes"/>
      <point x="1045" y="933"/>
      <point x="919" y="1079"/>
      <point x="707" y="1079" type="curve" smooth="yes"/>
      <point x="560" y="1079"/>
      <point x="444" y="1014"/>
      <point x="361" y="887" type="curve"/>
      <point x="354" y="887" type="line"/>
      <point x="354" y="1047" type="line"/>
      <point x="185" y="1047" type="line"/>
      <point x="185" y="0" type="line"/>
      <point x="366" y="0" type="line"/>
      <point x="366" y="605" type="line" smooth="yes"/>
      <point x="366" y="795"/>
      <point x="475" y="918"/>
      <point x="643" y="918" type="curve" smooth="yes"/>
      <point x="789" y="918"/>
      <point x="864" y="830"/>
      <point x="864" y="659" type="curve" smooth="yes"/>
      <point x="864" y="-107" type="line" smooth="yes"/>
      <point x="864" y="-217"/>
      <point x="817" y="-274"/>
      <point x="724" y="-274" type="curve" smooth="yes"/>
      <point x="666" y="-274"/>
      <point x="613" y="-251"/>
      <point x="562" y="-208" type="curve"/>
      <point x="460" y="-344" type="line"/>
      <point x="534" y="-407"/>
      <point x="631" y="-442"/>
    </contour>
  </outline>
</glyph>
<glyph name="oe" format="2">
  <advance width="1200"/>
  <unicode hex="0153"/>
  <outline>
    <contour>
      <point x="345" y="-32" type="curve" smooth="yes"/>
      <point x="493" y="-32"/>
      <point x="589" y="86"/>
      <point x="622" y="307" type="curve"/>
      <point x="560" y="307" type="line"/>
      <point x="586" y="101"/>
      <point x="704" y="-32"/>
      <point x="868" y="-32" type="curve" smooth="yes"/>
      <point x="999" y="-32"/>
      <point x="1097" y="48"/>
      <point x="1166" y="212" type="curve"/>
      <point x="1026" y="278" type="line"/>
      <point x="979" y="172"/>
      <point x="928" y="126"/>
      <point x="859" y="126" type="curve" smooth="yes"/>
      <point x="738" y="126"/>
      <point x="666" y="269"/>
      <point x="666" y="510" type="curve" smooth="yes"/>
      <point x="666" y="542" type="line" smooth="yes"/>
      <point x="666" y="779"/>
      <point x="741" y="925"/>
      <point x="859" y="925" type="curve" smooth="yes"/>
      <point x="958" y="925"/>
      <point x="1007" y="823"/>
      <point x="1007" y="621" type="curve"/>
      <point x="1007" y="613" type="line"/>
      <point x="614" y="613" type="line"/>
      <point x="614" y="475" type="line"/>
      <point x="1169" y="475" type="line"/>
      <point x="1172" y="520"/>
      <point x="1173" y="560"/>
      <point x="1173" y="605" type="curve" smooth="yes"/>
      <point x="1173" y="902"/>
      <point x="1063" y="1079"/>
      <point x="879" y="1079" type="curve" smooth="yes"/>
      <point x="732" y="1079"/>
      <point x="615" y="964"/>
      <point x="580" y="784" type="curve"/>
      <point x="620" y="784" type="line"/>
      <point x="582" y="978"/>
      <point x="487" y="1079"/>
      <point x="345" y="1079" type="curve" smooth="yes"/>
      <point x="140" y="1079"/>
      <point x="26" y="886"/>
      <point x="26" y="541" type="curve" smooth="yes"/>
      <point x="26" y="506" type="line" smooth="yes"/>
      <point x="26" y="161"/>
      <point x="140" y="-32"/>
    </contour>
    <contour>
      <point x="356" y="126" type="curve" smooth="yes"/>
      <point x="247" y="126"/>
      <point x="191" y="255"/>
      <point x="191" y="509" type="curve" smooth="yes"/>
      <point x="191" y="538" type="line" smooth="yes"/>
      <point x="191" y="792"/>
      <point x="247" y="921"/>
      <point x="356" y="921" type="curve" smooth="yes"/>
      <point x="465" y="921"/>
      <point x="521" y="793"/>
      <point x="521" y="538" type="curve" smooth="yes"/>
      <point x="521" y="509" type="line" smooth="yes"/>
      <point x="521" y="254"/>
      <point x="465" y="126"/>
    </contour>
  </outline>
</glyph>
<glyph name="tcaron" format="2">
  <advance width="1200"/>
  <unicode hex="0165"/>
  <outline>
    <contour>
      <point x="766" y="-31" type="curve" smooth="yes"/>
      <point x="888" y="-31"/>
      <point x="993" y="13"/>
      <point x="1081" y="100" type="curve"/>
      <point x="979" y="234" type="line"/>
      <point x="915" y="170"/>
      <point x="851" y="139"/>
      <point x="773" y="139" type="curve" smooth="yes"/>
      <point x="641" y="139"/>
      <point x="579" y="211"/>
      <point x="579" y="366" type="curve" smooth="yes"/>
      <point x="579" y="1326" type="line"/>
      <point x="396" y="1326" type="line"/>
      <point x="396" y="352" type="line" smooth="yes"/>
      <point x="396" y="110"/>
      <point x="532" y="-31"/>
    </contour>
    <contour>
      <point x="111" y="851" type="line"/>
      <point x="1016" y="851" type="line"/>
      <point x="1016" y="1007" type="line"/>
      <point x="111" y="1007" type="line"/>
    </contour>
    <contour>
      <point x="751" y="1149" type="line"/>
      <point x="895" y="1149" type="line"/>
      <point x="965" y="1565" type="line"/>
      <point x="779" y="1565" type="line"/>
    </contour>
  </outline>
</glyph>
<glyph name="uogonek" format="2">
  <advance width="1200"/>
  <unicode hex="0173"/>
  <anchor x="612" y="-32" name="bottom"/>
  <anchor x="1012" y="0" name="ogonek"/>
  <anchor x="592" y="1047" name="top"/>
  <outline>
    <contour>
      <point x="918" y="-534" type="curve" smooth="yes"/>
      <point x="982" y="-534"/>
      <point x="1039" y="-521"/>
      <point x="1092" y="-493" type="curve"/>
      <point x="1048" y="-360" type="line"/>
      <point x="1013" y="-378"/>
      <point x="981" y="-386"/>
      <point x="941" y="-386" type="curve" smooth="yes"/>
      <point x="863" y="-386"/>
      <point x="807" y="-335"/>
      <point x="807" y="-260" type="curve" smooth="yes"/>
      <point x="807" y="-160"/>
      <point x="867" y="-85"/>
      <point x="1012" y="0" type="curve"/>
      <point x="963" y="87" type="line"/>
      <point x="752" y="-10"/>
      <point x="649" y="-134"/>
      <point x="649" y="-280" type="curve" smooth="yes"/>
      <point x="649" y="-426"/>
      <point x="764" y="-534"/>
    </contour>
    <component base="u"/>
  </outline>
</glyph>
<glyph name="Dhook" format="2">
  <advance width="1200"/>
  <unicode hex="018A"/>
  <outline>
    <contour>
      <point x="391" y="0" type="line"/>
      <point x="620" y="0" type="line" smooth="yes"/>
      <point x="953" y="0"/>
      <point x="1146" y="251"/>
      <point x="1146" y="673" type="curve" smooth="yes"/>
      <point x="1146" y="759" type="line" smooth="yes"/>
      <point x="1146" y="1181"/>
      <point x="953" y="1432"/>
      <point x="620" y="1432" type="curve" smooth="yes"/>
      <point x="391" y="1432" type="line"/>
    </contour>
    <contour>
      <point x="64" y="890" type="curve"/>
      <point x="223" y="948" type="line"/>
      <point x="203" y="997"/>
      <point x="194" y="1041"/>
      <point x="194" y="1089" type="curve" smooth="yes"/>
      <point x="194" y="1207"/>
      <point x="263" y="1277"/>
      <point x="382" y="1277" type="curve" smooth="yes"/>
      <point x="491" y="1277" type="line"/>
      <point x="491" y="1432" type="line"/>
      <point x="380" y="1432" type="line" smooth="yes"/>
      <point x="166" y="1432"/>
      <point x="17" y="1292"/>
      <point x="17" y="1095" type="curve" smooth="yes"/>
      <point x="17" y="1031"/>
      <point x="33" y="963"/>
    </contour>
    <contour>
      <point x="561" y="164" type="line"/>
      <point x="561" y="1268" type="line"/>
      <point x="636" y="1268" type="line" smooth="yes"/>
      <point x="861" y="1268"/>
      <point x="972" y="1105"/>
      <point x="972" y="764" type="curve" smooth="yes"/>
      <point x="972" y="668" type="line" smooth="yes"/>
      <point x="972" y="328"/>
      <point x="861" y="164"/>
      <point x="636" y="164" type="curve" smooth="yes"/>
    </contour>
  </outline>
</glyph>
<glyph name="Schwa" format="2">
  <advance width="1200"/>
  <unicode hex="018F"/>
  <outline>
    <contour>
      <point x="616" y="-32" type="curve" smooth="yes"/>
      <point x="948" y="-32"/>
      <point x="1139" y="235"/>
      <point x="1139" y="699" type="curve" smooth="yes"/>
      <point x="1139" y="735" type="line" smooth="yes"/>
      <point x="1139" y="1216"/>
      <point x="967" y="1464"/>
      <point x="632" y="1464" type="curve" smooth="yes"/>
      <point x="423" y="1464"/>
      <point x="245" y="1367"/>
      <point x="121" y="1183" type="curve"/>
      <point x="266" y="1079" type="line"/>
      <point x="362" y="1221"/>
      <point x="477" y="1288"/>
      <point x="627" y="1288" type="curve" smooth="yes"/>
      <point x="853" y="1288"/>
      <point x="957" y="1117"/>
      <point x="957" y="744" type="curve" smooth="yes"/>
      <point x="957" y="693" type="line" smooth="yes"/>
      <point x="957" y="325"/>
      <point x="842" y="144"/>
      <point x="611" y="144" type="curve" smooth="yes"/>
      <point x="390" y="144"/>
      <point x="274" y="303"/>
      <point x="274" y="604" type="curve"/>
      <point x="273" y="603" type="line"/>
      <point x="1019" y="603" type="line"/>
      <point x="1019" y="767" type="line"/>
      <point x="103" y="767" type="line"/>
      <point x="97" y="722"/>
      <point x="94" y="671"/>
      <point x="94" y="614" type="curve" smooth="yes"/>
      <point x="94" y="208"/>
      <point x="288" y="-32"/>
    </contour>
  </outline>
</glyph>
<glyph name="Khook" format="2">
  <advance width="1200"/>
  <unicode hex="0198"/>
  <outline>
    <contour>
      <point x="899" y="0" type="line"/>
      <point x="1127" y="0" type="line"/>
      <point x="506" y="786" type="line"/>
      <point x="506" y="742" type="line"/>
      <point x="782" y="1132" type="line" smooth="yes"/>
      <point x="859" y="1240"/>
      <point x="916" y="1285"/>
      <point x="990" y="1285" type="curve" smooth="yes"/>
      <point x="1033" y="1285"/>
      <point x="1061" y="1273"/>
      <point x="1099" y="1239" type="curve"/>
      <point x="1193" y="1388" type="line"/>
      <point x="1130" y="1442"/>
      <point x="1075" y="1463"/>
      <point x="990" y="1463" type="curve" smooth="yes"/>
      <point x="843" y="1463"/>
      <point x="754" y="1394"/>
      <point x="638" y="1221" type="curve" smooth="yes"/>
      <point x="318" y="744" type="line"/>
      <point x="318" y="738" type="line"/>
    </contour>
    <contour>
      <point x="137" y="0" type="line"/>
      <point x="323" y="0" type="line"/>
      <point x="323" y="1432" type="line"/>
      <point x="137" y="1432" type="line"/>
    </contour>
  </outline>
</glyph>
<glyph name="khook" format="2">
  <advance width="1200"/>
  <unicode hex="0199"/>
  <outline>
    <contour>
      <point x="174" y="0" type="line"/>
      <point x="356" y="0" type="line"/>
      <point x="356" y="1067" type="line" smooth="yes"/>
      <point x="356" y="1239"/>
      <point x="422" y="1322"/>
      <point x="560" y="1322" type="curve" smooth="yes"/>
      <point x="618" y="1322"/>
      <point x="663" y="1311"/>
      <point x="707" y="1287" type="curve"/>
      <point x="775" y="1439" type="line"/>
      <point x="703" y="1477"/>
      <point x="635" y="1494"/>
      <point x="553" y="1494" type="curve" smooth="yes"/>
      <point x="320" y="1494"/>
      <point x="174" y="1335"/>
      <point x="174" y="1075" type="curve" smooth="yes"/>
    </contour>
    <contour>
      <point x="842" y="0" type="line"/>
      <point x="1078" y="0" type="line"/>
      <point x="517" y="625" type="line"/>
      <point x="517" y="509" type="line"/>
      <point x="1052" y="1047" type="line"/>
      <point x="819" y="1047" type="line"/>
      <point x="349" y="567" type="line"/>
      <point x="349" y="561" type="line"/>
    </contour>
  </outline>
</glyph>
<glyph name="Ohorn" format="2">
  <advance width="1200"/>
  <unicode hex="01A0"/>
  <anchor x="599" y="-32" name="bottom"/>
  <outline>
    <contour>
      <point x="599" y="-32" type="curve" smooth="yes"/>
      <point x="923" y="-32"/>
      <point x="1122" y="246"/>
      <point x="1122" y="697" type="curve" smooth="yes"/>
      <point x="1122" y="735" type="line" smooth="yes"/>
      <point x="1122" y="1079"/>
      <point x="996" y="1322"/>
      <point x="771" y="1415" type="curve"/>
      <point x="764" y="1349" type="line"/>
      <point x="869" y="1349" type="line" smooth="yes"/>
      <point x="1058" y="1349"/>
      <point x="1184" y="1440"/>
      <point x="1184" y="1596" type="curve" smooth="yes"/>
      <point x="1184" y="1668"/>
      <point x="1159" y="1737"/>
      <point x="1108" y="1808" type="curve"/>
      <point x="942" y="1704" type="line"/>
      <point x="980" y="1653"/>
      <point x="996" y="1611"/>
      <point x="996" y="1567" type="curve" smooth="yes"/>
      <point x="996" y="1489"/>
      <point x="940" y="1448"/>
      <point x="834" y="1448" type="curve" smooth="yes"/>
      <point x="758" y="1448"/>
      <point x="698" y="1463"/>
      <point x="607" y="1463" type="curve" smooth="yes"/>
      <point x="280" y="1463"/>
      <point x="77" y="1193"/>
      <point x="77" y="735" type="curve" smooth="yes"/>
      <point x="77" y="697" type="line" smooth="yes"/>
      <point x="77" y="246"/>
      <point x="276" y="-32"/>
    </contour>
    <contour>
      <point x="599" y="144" type="curve" smooth="yes"/>
      <point x="385" y="144"/>
      <point x="265" y="340"/>
      <point x="265" y="692" type="curve" smooth="yes"/>
      <point x="265" y="740" type="line" smooth="yes"/>
      <point x="265" y="1091"/>
      <point x="389" y="1292"/>
      <point x="607" y="1292" type="curve" smooth="yes"/>
      <point x="823" y="1292"/>
      <point x="933" y="1102"/>
      <point x="933" y="744" type="curve" smooth="yes"/>
      <point x="933" y="692" type="line" smooth="yes"/>
      <point x="933" y="340"/>
      <point x="814" y="144"/>
    </contour>
  </outline>
</glyph>
<glyph name="yhook" format="2">
  <advance width="1200"/>
  <unicode hex="01B4"/>
  <outline>
    <contour>
      <point x="255" y="-442" type="curve" smooth="yes"/>
      <point x="420" y="-442"/>
      <point x="535" y="-342"/>
      <point x="585" y="-155" type="curve" smooth="yes"/>
      <point x="868" y="906" type="line" smooth="yes"/>
      <point x="921" y="1105"/>
      <point x="991" y="1186"/>
      <point x="1109" y="1186" type="curve" smooth="yes"/>
      <point x="1155" y="1186"/>
      <point x="1187" y="1176"/>
      <point x="1219" y="1159" type="curve"/>
      <point x="1276" y="1310" type="line"/>
      <point x="1222" y="1339"/>
      <point x="1166" y="1353"/>
      <point x="1100" y="1353" type="curve" smooth="yes"/>
      <point x="898" y="1353"/>
      <point x="764" y="1212"/>
      <point x="699" y="941" type="curve" smooth="yes"/>
      <point x="577" y="435" type="line"/>
      <point x="517" y="132" type="line"/>
      <point x="489" y="132" type="line"/>
      <point x="420" y="-124" type="line" smooth="yes"/>
      <point x="392" y="-228"/>
      <point x="337" y="-275"/>
      <point x="247" y="-275" type="curve" smooth="yes"/>
      <point x="193" y="-275"/>
      <point x="147" y="-259"/>
      <point x="95" y="-222" type="curve"/>
      <point x="9" y="-362" type="line"/>
      <point x="80" y="-415"/>
      <point x="164" y="-442"/>
    </contour>
    <contour>
      <point x="457" y="-68" type="line"/>
      <point x="558" y="196" type="line"/>
      <point x="523" y="196" type="line"/>
      <point x="461" y="435" type="line"/>
      <point x="264" y="1047" type="line"/>
      <point x="72" y="1047" type="line"/>
    </contour>
  </outline>
</glyph>
<glyph name="Dzcaron" format="2">
  <advance width="1200"/>
  <unicode hex="01C5"/>
  <outline>
    <contour>
      <point x="35" y="0" type="line"/>
      <point x="253" y="0" type="line" smooth="yes"/>
      <point x="515" y="0"/>
      <point x="639" y="210"/>
      <point x="639" y="653" type="curve" smooth="yes"/>
      <point x="639" y="779" type="line" smooth="yes"/>
      <point x="639" y="1222"/>
      <point x="515" y="1432"/>
      <point x="253" y="1432" type="curve" smooth="yes"/>
      <point x="35" y="1432" type="line"/>
    </contour>
    <contour>
      <point x="191" y="156" type="line"/>
      <point x="191" y="1276" type="line"/>
      <point x="252" y="1276" type="line" smooth="yes"/>
      <point x="414" y="1276"/>
      <point x="481" y="1134"/>
      <point x="481" y="784" type="curve" smooth="yes"/>
      <point x="481" y="648" type="line" smooth="yes"/>
      <point x="481" y="297"/>
      <point x="414" y="156"/>
      <point x="252" y="156" type="curve" smooth="yes"/>
    </contour>
    <contour>
      <point x="686" y="0" type="line"/>
      <point x="1192" y="0" type="line"/>
      <point x="1192" y="158" type="line"/>
      <point x="857" y="158" type="line"/>
      <point x="1186" y="913" type="line"/>
      <point x="1186" y="1047" type="line"/>
      <point x="712" y="1047" type="line"/>
      <point x="712" y="889" type="line"/>
      <point x="1014" y="889" type="line"/>
      <point x="686" y="135" type="line"/>
    </contour>
    <contour>
      <point x="861" y="1253" type="line"/>
      <point x="1029" y="1253" type="line"/>
      <point x="1226" y="1602" type="line"/>
      <point x="1226" y="1613" type="line"/>
      <point x="1060" y="1613" type="line"/>
      <point x="929" y="1337" type="line"/>
      <point x="961" y="1337" type="line"/>
      <point x="830" y="1613" type="line"/>
      <point x="664" y="1613" type="line"/>
      <point x="664" y="1602" type="line"/>
    </contour>
  </outline>
</glyph>
<glyph name="LJ" format="2">
  <advance width="1200"/>
  <unicode hex="01C7"/>
  <outline>
    <contour>
      <point x="852" y="-31" type="curve" smooth="yes"/>
      <point x="1048" y="-31"/>
      <point x="1175" y="108"/>
      <point x="1175" y="315" type="curve" smooth="yes"/>
      <point x="1175" y="1432" type="line"/>
      <point x="993" y="1432" type="line"/>
      <point x="993" y="325" type="line" smooth="yes"/>
      <point x="993" y="209"/>
      <point x="937" y="144"/>
      <point x="838" y="144" type="curve" smooth="yes"/>
      <point x="779" y="144"/>
      <point x="726" y="163"/>
      <point x="675" y="203" type="curve"/>
      <point x="587" y="56" type="line"/>
      <point x="664" y="0"/>
      <point x="751" y="-31"/>
    </contour>
    <contour>
      <point x="22" y="0" type="line"/>
      <point x="537" y="0" type="line"/>
      <point x="537" y="172" type="line"/>
      <point x="204" y="172" type="line"/>
      <point x="204" y="1432" type="line"/>
      <point x="22" y="1432" type="line"/>
    </contour>
  </outline>
</glyph>
<glyph name="Lj" format="2">
  <advance width="1200"/>
  <unicode hex="01C8"/>
  <outline>
    <contour>
      <point x="761" y="-442" type="curve" smooth="yes"/>
      <point x="985" y="-442"/>
      <point x="1131" y="-287"/>
      <point x="1131" y="-38" type="curve" smooth="yes"/>
      <point x="1131" y="1047" type="line"/>
      <point x="957" y="1047" type="line"/>
      <point x="957" y="-38" type="line" smooth="yes"/>
      <point x="957" y="-196"/>
      <point x="886" y="-278"/>
      <point x="753" y="-278" type="curve" smooth="yes"/>
      <point x="675" y="-278"/>
      <point x="602" y="-251"/>
      <point x="523" y="-193" type="curve"/>
      <point x="434" y="-331" type="line"/>
      <point x="536" y="-406"/>
      <point x="642" y="-442"/>
    </contour>
    <contour>
      <point x="71" y="0" type="line"/>
      <point x="697" y="0" type="line"/>
      <point x="697" y="172" type="line"/>
      <point x="251" y="172" type="line"/>
      <point x="251" y="1432" type="line"/>
      <point x="71" y="1432" type="line"/>
    </contour>
    <contour>
      <point x="568" y="899" type="line"/>
      <point x="1057" y="899" type="line"/>
      <point x="1057" y="1047" type="line"/>
      <point x="568" y="1047" type="line"/>
    </contour>
    <contour>
      <point x="1015" y="1278" type="curve" smooth="yes"/>
      <point x="1100" y="1278"/>
      <point x="1166" y="1345"/>
      <point x="1166" y="1430" type="curve" smooth="yes"/>
      <point x="1166" y="1517"/>
      <point x="1102" y="1581"/>
      <point x="1015" y="1581" type="curve" smooth="yes"/>
      <point x="929" y="1581"/>
      <point x="862" y="1515"/>
      <point x="862" y="1431" type="curve" smooth="yes"/>
      <point x="862" y="1347"/>
      <point x="931" y="1278"/>
    </contour>
  </outline>
</glyph>
<glyph name="lj" format="2">
  <advance width="1200"/>
  <unicode hex="01C9"/>
  <outline>
    <contour>
      <point x="811" y="-442" type="curve" smooth="yes"/>
      <point x="1018" y="-442"/>
      <point x="1152" y="-297"/>
      <point x="1152" y="-69" type="curve" smooth="yes"/>
      <point x="1152" y="1047" type="line"/>
      <point x="982" y="1047" type="line"/>
      <point x="982" y="-71" type="line" smooth="yes"/>
      <point x="982" y="-211"/>
      <point x="920" y="-283"/>
      <point x="806" y="-283" type="curve" smooth="yes"/>
      <point x="732" y="-283"/>
      <point x="673" y="-257"/>
      <point x="605" y="-204" type="curve"/>
      <point x="514" y="-334" type="line"/>
      <point x="605" y="-405"/>
      <point x="704" y="-442"/>
    </contour>
    <contour>
      <point x="584" y="0" type="curve" smooth="yes"/>
      <point x="687" y="0"/>
      <point x="770" y="37"/>
      <point x="846" y="118" type="curve"/>
      <point x="750" y="242" type="line"/>
      <point x="696" y="184"/>
      <point x="649" y="162"/>
      <point x="587" y="162" type="curve" smooth="yes"/>
      <point x="483" y="162"/>
      <point x="429" y="226"/>
      <point x="429" y="353" type="curve" smooth="yes"/>
      <point x="429" y="1460" type="line"/>
      <point x="259" y="1460" type="line"/>
      <point x="259" y="345" type="line" smooth="yes"/>
      <point x="259" y="133"/>
      <point x="385" y="0"/>
    </contour>
    <contour>
      <point x="18" y="1313" type="line"/>
      <point x="335" y="1313" type="line"/>
      <point x="335" y="1460" type="line"/>
      <point x="18" y="1460" type="line"/>
    </contour>
    <contour>
      <point x="689" y="899" type="line"/>
      <point x="1108" y="899" type="line"/>
      <point x="1108" y="1047" type="line"/>
      <point x="689" y="1047" type="line"/>
    </contour>
    <contour>
      <point x="1036" y="1278" type="curve" smooth="yes"/>
      <point x="1120" y="1278"/>
      <point x="1187" y="1345"/>
      <point x="1187" y="1430" type="curve" smooth="yes"/>
      <point x="1187" y="1517"/>
      <point x="1122" y="1581"/>
      <point x="1036" y="1581" type="curve" smooth="yes"/>
      <point x="950" y="1581"/>
      <point x="883" y="1515"/>
      <point x="883" y="1431" type="curve" smooth="yes"/>
      <point x="883" y="1347"/>
      <point x="952" y="1278"/>
    </contour>
  </outline>
</glyph>
<glyph name="NJ" format="2">
  <advance width="1200"/>
  <unicode hex="01CA"/>
  <outline>
    <contour>
      <point x="22" y="0" type="line"/>
      <point x="172" y="0" type="line"/>
      <point x="172" y="652" type="line"/>
      <point x="148" y="1205" type="line"/>
      <point x="159" y="1205" type="line"/>
      <point x="436" y="0" type="line"/>
      <point x="637" y="0" type="line"/>
      <point x="637" y="1432" type="line"/>
      <point x="487" y="1432" type="line"/>
      <point x="487" y="842" type="line"/>
      <point x="514" y="285" type="line"/>
      <point x="503" y="285" type="line"/>
      <point x="241" y="1432" type="line"/>
      <point x="22" y="1432" type="line"/>
    </contour>
    <contour>
      <point x="902" y="-31" type="curve" smooth="yes"/>
      <point x="1072" y="-31"/>
      <point x="1175" y="88"/>
      <point x="1175" y="279" type="curve" smooth="yes"/>
      <point x="1175" y="1432" type="line"/>
      <point x="1011" y="1432" type="line"/>
      <point x="1011" y="286" type="line" smooth="yes"/>
      <point x="1011" y="181"/>
      <point x="969" y="127"/>
      <point x="886" y="127" type="curve" smooth="yes"/>
      <point x="842" y="127"/>
      <point x="805" y="143"/>
      <point x="767" y="176" type="curve"/>
      <point x="690" y="45" type="line"/>
      <point x="750" y="-5"/>
      <point x="822" y="-31"/>
    </contour>
  </outline>
</glyph>
<glyph name="nj" format="2">
  <advance width="1200"/>
  <unicode hex="01CC"/>
  <outline>
    <contour>
      <point x="788" y="-442" type="curve" smooth="yes"/>
      <point x="995" y="-442"/>
      <point x="1126" y="-298"/>
      <point x="1126" y="-67" type="curve" smooth="yes"/>
      <point x="1126" y="1047" type="line"/>
      <point x="955" y="1047" type="line"/>
      <point x="955" y="-68" type="line" smooth="yes"/>
      <point x="955" y="-209"/>
      <point x="895" y="-282"/>
      <point x="781" y="-282" type="curve" smooth="yes"/>
      <point x="715" y="-282"/>
      <point x="658" y="-261"/>
      <point x="594" y="-211" type="curve"/>
      <point x="506" y="-341" type="line"/>
      <point x="591" y="-408"/>
      <point x="689" y="-442"/>
    </contour>
    <contour>
      <point x="69" y="0" type="line"/>
      <point x="239" y="0" type="line"/>
      <point x="239" y="647" type="line" smooth="yes"/>
      <point x="239" y="811"/>
      <point x="326" y="923"/>
      <point x="449" y="923" type="curve" smooth="yes"/>
      <point x="554" y="923"/>
      <point x="602" y="857"/>
      <point x="602" y="716" type="curve" smooth="yes"/>
      <point x="602" y="0" type="line"/>
      <point x="773" y="0" type="line"/>
      <point x="773" y="742" type="line" smooth="yes"/>
      <point x="773" y="953"/>
      <point x="675" y="1078"/>
      <point x="509" y="1078" type="curve" smooth="yes"/>
      <point x="392" y="1078"/>
      <point x="298" y="1014"/>
      <point x="233" y="894" type="curve"/>
      <point x="224" y="894" type="line"/>
      <point x="224" y="1047" type="line"/>
      <point x="69" y="1047" type="line"/>
    </contour>
    <contour>
      <point x="1041" y="1279" type="curve" smooth="yes"/>
      <point x="1124" y="1279"/>
      <point x="1188" y="1345"/>
      <point x="1188" y="1430" type="curve" smooth="yes"/>
      <point x="1188" y="1516"/>
      <point x="1126" y="1581"/>
      <point x="1041" y="1581" type="curve" smooth="yes"/>
      <point x="956" y="1581"/>
      <point x="892" y="1515"/>
      <point x="892" y="1431" type="curve" smooth="yes"/>
      <point x="892" y="1347"/>
      <point x="958" y="1279"/>
    </contour>
  </outline>
</glyph>
<glyph name="dhook" format="2">
  <advance width="1200"/>
  <unicode hex="0257"/>
  <outline>
    <contour>
      <point x="464" y="-32" type="curve" smooth="yes"/>
      <point x="597" y="-32"/>
      <point x="696" y="36"/>
      <point x="752" y="168" type="curve"/>
      <point x="758" y="168" type="line"/>
      <point x="758" y="0" type="line"/>
      <point x="920" y="0" type="line"/>
      <point x="920" y="1129" type="line" smooth="yes"/>
      <point x="920" y="1264"/>
      <point x="965" y="1324"/>
      <point x="1062" y="1324" type="curve" smooth="yes"/>
      <point x="1097" y="1324"/>
      <point x="1125" y="1315"/>
      <point x="1152" y="1298" type="curve"/>
      <point x="1211" y="1451" type="line"/>
      <point x="1162" y="1480"/>
      <point x="1110" y="1494"/>
      <point x="1047" y="1494" type="curve" smooth="yes"/>
      <point x="866" y="1494"/>
      <point x="745" y="1360"/>
      <point x="745" y="1139" type="curve" smooth="yes"/>
      <point x="745" y="900" type="line"/>
      <point x="739" y="900" type="line"/>
      <point x="678" y="1021"/>
      <point x="586" y="1079"/>
      <point x="456" y="1079" type="curve" smooth="yes"/>
      <point x="221" y="1079"/>
      <point x="69" y="872"/>
      <point x="69" y="552" type="curve" smooth="yes"/>
      <point x="69" y="497" type="line" smooth="yes"/>
      <point x="69" y="180"/>
      <point x="228" y="-32"/>
    </contour>
    <contour>
      <point x="502" y="129" type="curve" smooth="yes"/>
      <point x="345" y="129"/>
      <point x="250" y="269"/>
      <point x="250" y="501" type="curve" smooth="yes"/>
      <point x="250" y="547" type="line" smooth="yes"/>
      <point x="250" y="781"/>
      <point x="343" y="918"/>
      <point x="502" y="918" type="curve" smooth="yes"/>
      <point x="656" y="918"/>
      <point x="751" y="776"/>
      <point x="751" y="547" type="curve" smooth="yes"/>
      <point x="751" y="501" type="line" smooth="yes"/>
      <point x="751" y="271"/>
      <point x="656" y="129"/>
    </contour>
  </outline>
</glyph>
<glyph name="schwa" format="2">
  <advance width="1200"/>
  <unicode hex="0259"/>
  <outline>
    <contour>
      <point x="606" y="-32" type="curve" smooth="yes"/>
      <point x="888" y="-32"/>
      <point x="1076" y="185"/>
      <point x="1076" y="510" type="curve" smooth="yes"/>
      <point x="1076" y="548" type="line" smooth="yes"/>
      <point x="1076" y="875"/>
      <point x="899" y="1079"/>
      <point x="609" y="1079" type="curve" smooth="yes"/>
      <point x="431" y="1079"/>
      <point x="276" y="1010"/>
      <point x="155" y="878" type="curve"/>
      <point x="268" y="759" type="line"/>
      <point x="366" y="865"/>
      <point x="475" y="915"/>
      <point x="604" y="915" type="curve" smooth="yes"/>
      <point x="795" y="915"/>
      <point x="896" y="785"/>
      <point x="896" y="549" type="curve" smooth="yes"/>
      <point x="896" y="509" type="line" smooth="yes"/>
      <point x="896" y="272"/>
      <point x="787" y="129"/>
      <point x="606" y="129" type="curve" smooth="yes"/>
      <point x="436" y="129"/>
      <point x="323" y="244"/>
      <point x="323" y="419" type="curve"/>
      <point x="323" y="424" type="line"/>
      <point x="962" y="424" type="line"/>
      <point x="962" y="568" type="line"/>
      <point x="148" y="568" type="line"/>
      <point x="144" y="536"/>
      <point x="143" y="503"/>
      <point x="143" y="455" type="curve" smooth="yes"/>
      <point x="143" y="163"/>
      <point x="328" y="-32"/>
    </contour>
  </outline>
</glyph>
<glyph name="acutecomb" format="2">
  <unicode hex="0301"/>
  <anchor x="0" y="1047" name="_top"/>
  <outline>
    <contour>
      <point x="-86" y="1253" type="line"/>
      <point x="86" y="1253" type="line"/>
      <point x="313" y="1602" type="line"/>
      <point x="313" y="1613" type="line"/>
      <point x="91" y="1613" type="line"/>
      <point x="-86" y="1264" type="line"/>
    </contour>
  </outline>
</glyph>
<glyph name="circumflexcomb" format="2">
  <unicode hex="0302"/>
  <anchor x="0" y="1047" name="_top"/>
  <outline>
    <contour>
      <point x="-369" y="1253" type="line"/>
      <point x="-173" y="1253" type="line"/>
      <point x="22" y="1533" type="line"/>
      <point x="-21" y="1533" type="line"/>
      <point x="173" y="1253" type="line"/>
      <point x="369" y="1253" type="line"/>
      <point x="369" y="1264" type="line"/>
      <point x="97" y="1613" type="line"/>
      <point x="-97" y="1613" type="line"/>
      <point x="-369" y="1264" type="line"/>
    </contour>
  </outline>
</glyph>
<glyph name="macroncomb" format="2">
  <unicode hex="0304"/>
  <anchor x="0" y="1047" name="_top"/>
  <outline>
    <contour>
      <point x="-317" y="1341" type="line"/>
      <point x="317" y="1341" type="line"/>
      <point x="317" y="1505" type="line"/>
      <point x="-317" y="1505" type="line"/>
    </contour>
  </outline>
</glyph>
<glyph name="brevecomb" format="2">
  <unicode hex="0306"/>
  <anchor x="0" y="1047" name="_top"/>
  <outline>
    <contour>
      <point x="0" y="1249" type="curve" smooth="yes"/>
      <point x="205" y="1249"/>
      <point x="348" y="1393"/>
      <point x="348" y="1599" type="curve" smooth="yes"/>
      <point x="348" y="1613" type="line"/>
      <point x="186" y="1613" type="line"/>
      <point x="186" y="1593" type="line" smooth="yes"/>
      <point x="186" y="1474"/>
      <point x="114" y="1398"/>
      <point x="0" y="1398" type="curve" smooth="yes"/>
      <point x="-114" y="1398"/>
      <point x="-186" y="1474"/>
      <point x="-186" y="1593" type="curve" smooth="yes"/>
      <point x="-186" y="1613" type="line"/>
      <point x="-348" y="1613" type="line"/>
      <point x="-348" y="1599" type="line" smooth="yes"/>
      <point x="-348" y="1393"/>
      <point x="-205" y="1249"/>
    </contour>
  </outline>
</glyph>
<glyph name="dieresiscomb" format="2">
  <unicode hex="0308"/>
  <anchor x="0" y="1047" name="_top"/>
  <outline>
    <contour>
      <point x="-218" y="1278" type="curve" smooth="yes"/>
      <point x="-134" y="1278"/>
      <point x="-70" y="1342"/>
      <point x="-70" y="1424" type="curve" smooth="yes"/>
      <point x="-70" y="1506"/>
      <point x="-135" y="1570"/>
      <point x="-218" y="1570" type="curve" smooth="yes"/>
      <point x="-298" y="1570"/>
      <point x="-364" y="1505"/>
      <point x="-364" y="1424" type="curve" smooth="yes"/>
      <point x="-364" y="1342"/>
      <point x="-299" y="1278"/>
    </contour>
    <contour>
      <point x="218" y="1278" type="curve" smooth="yes"/>
      <point x="302" y="1278"/>
      <point x="366" y="1342"/>
      <point x="366" y="1424" type="curve" smooth="yes"/>
      <point x="366" y="1506"/>
      <point x="301" y="1570"/>
      <point x="218" y="1570" type="curve" smooth="yes"/>
      <point x="138" y="1570"/>
      <point x="72" y="1505"/>
      <point x="72" y="1424" type="curve" smooth="yes"/>
      <point x="72" y="1342"/>
      <point x="137" y="1278"/>
    </contour>
  </outline>
</glyph>
<glyph name="hungarumlautcomb" format="2">
  <unicode hex="030B"/>
  <anchor x="0" y="1047" name="_top"/>
  <outline>
    <contour>
      <point x="104" y="1253" type="line"/>
      <point x="270" y="1253" type="line"/>
      <point x="485" y="1602" type="line"/>
      <point x="485" y="1613" type="line"/>
      <point x="269" y="1613" type="line"/>
      <point x="104" y="1264" type="line"/>
    </contour>
    <contour>
      <point x="-278" y="1253" type="line"/>
      <point x="-112" y="1253" type="line"/>
      <point x="103" y="1602" type="line"/>
      <point x="103" y="1613" type="line"/>
      <point x="-113" y="1613" type="line"/>
      <point x="-278" y="1264" type="line"/>
    </contour>
  </outline>
</glyph>
<glyph name="horncomb" format="2">
  <unicode hex="031B"/>
  <anchor x="0" y="1432" name="_horn"/>
  <outline>
    <contour>
      <point x="-60" y="1326" type="line"/>
      <point x="7" y="1326" type="line" smooth="yes"/>
      <point x="190" y="1326"/>
      <point x="312" y="1429"/>
      <point x="312" y="1582" type="curve" smooth="yes"/>
      <point x="312" y="1650"/>
      <point x="292" y="1710"/>
      <point x="249" y="1776" type="curve"/>
      <point x="67" y="1675" type="line"/>
      <point x="100" y="1629"/>
      <point x="114" y="1593"/>
      <point x="114" y="1551" type="curve" smooth="yes"/>
      <point x="114" y="1473"/>
      <point x="63" y="1432"/>
      <point x="-31" y="1432" type="curve" smooth="yes"/>
      <point x="-60" y="1432" type="line"/>
    </contour>
  </outline>
</glyph>
<glyph name="ogonekcomb" format="2">
  <unicode hex="0328"/>
  <anchor x="72" y="-3" name="_ogonek"/>
  <outline>
    <contour>
      <point x="-56" y="-537" type="curve" smooth="yes"/>
      <point x="7" y="-537"/>
      <point x="63" y="-523"/>
      <point x="116" y="-494" type="curve"/>
      <point x="74" y="-363" type="line"/>
      <point x="40" y="-381"/>
      <point x="8" y="-389"/>
      <point x="-33" y="-389" type="curve" smooth="yes"/>
      <point x="-112" y="-389"/>
      <point x="-167" y="-338"/>
      <point x="-167" y="-264" type="curve" smooth="yes"/>
      <point x="-167" y="-165"/>
      <point x="-96" y="-87"/>
      <point x="72" y="-3" type="curve"/>
      <point x="23" y="84" type="line"/>
      <point x="-213" y="-8"/>
      <point x="-326" y="-129"/>
      <point x="-326" y="-285" type="curve" smooth="yes"/>
      <point x="-326" y="-429"/>
      <point x="-211" y="-537"/>
    </contour>
  </outline>
</glyph>
<glyph name="Germandbls" format="2">
  <advance width="1200"/>
  <unicode hex="1E9E"/>
  <outline>
    <contour>
      <point x="770" y="-32" type="curve" smooth="yes"/>
      <point x="1007" y="-32"/>
      <point x="1160" y="135"/>
      <point x="1160" y="394" type="curve" smooth="yes"/>
      <point x="1160" y="422" type="line" smooth="yes"/>
      <point x="1160" y="696"/>
      <point x="1013" y="852"/>
      <point x="755" y="852" type="curve"/>
      <point x="796" y="805" type="line"/>
      <point x="796" y="858" type="line"/>
      <point x="1014" y="1342" type="line"/>
      <point x="1014" y="1432" type="line"/>
      <point x="578" y="1432" type="line" smooth="yes"/>
      <point x="279" y="1432"/>
      <point x="118" y="1271"/>
      <point x="118" y="972" type="curve" smooth="yes"/>
      <point x="118" y="0" type="line"/>
      <point x="302" y="0" type="line"/>
      <point x="302" y="963" type="line" smooth="yes"/>
      <point x="302" y="1163"/>
      <point x="391" y="1260"/>
      <point x="580" y="1260" type="curve" smooth="yes"/>
      <point x="790" y="1260" type="line"/>
      <point x="790" y="1252" type="line"/>
      <point x="588" y="802" type="line"/>
      <point x="588" y="712" type="line"/>
      <point x="683" y="712" type="line" smooth="yes"/>
      <point x="874" y="712"/>
      <point x="974" y="617"/>
      <point x="974" y="435" type="curve" smooth="yes"/>
      <point x="974" y="411" type="line" smooth="yes"/>
      <point x="974" y="244"/>
      <point x="895" y="143"/>
      <point x="766" y="143" type="curve" smooth="yes"/>
      <point x="676" y="143"/>
      <point x="605" y="183"/>
      <point x="553" y="259" type="curve"/>
      <point x="415" y="149" type="line"/>
      <point x="492" y="37"/>
      <point x="622" y="-32"/>
    </contour>
  </outline>
</glyph>
<glyph name="guilsinglleft" format="2">
  <advance width="1200"/>
  <unicode hex="2039"/>
  <outline>
    <contour>
      <point x="800" y="24" type="line"/>
      <point x="920" y="131" type="line"/>
      <point x="569" y="532" type="line"/>
      <point x="920" y="933" type="line"/>
      <point x="800" y="1041" type="line"/>
      <point x="335" y="532" type="line"/>
    </contour>
  </outline>
</glyph>
<glyph name="euro" format="2">
  <advance width="1200"/>
  <unicode hex="20AC"/>
  <outline>
    <contour>
      <point x="723" y="-32" type="curve" smooth="yes"/>
      <point x="919" y="-32"/>
      <point x="1060" y="62"/>
      <point x="1143" y="248" type="curve"/>
      <point x="995" y="326" type="line"/>
      <point x="938" y="196"/>
      <point x="853" y="136"/>
      <point x="726" y="136" type="curve" smooth="yes"/>
      <point x="501" y="136"/>
      <point x="383" y="300"/>
      <point x="383" y="623" type="curve" smooth="yes"/>
      <point x="383" y="809" type="line" smooth="yes"/>
      <point x="383" y="1132"/>
      <point x="496" y="1296"/>
      <point x="714" y="1296" type="curve" smooth="yes"/>
      <point x="848" y="1296"/>
      <point x="935" y="1238"/>
      <point x="993" y="1111" type="curve"/>
      <point x="1141" y="1189" type="line"/>
      <point x="1057" y="1370"/>
      <point x="914" y="1464"/>
      <point x="719" y="1464" type="curve" smooth="yes"/>
      <point x="399" y="1464"/>
      <point x="209" y="1217"/>
      <point x="209" y="805" type="curve" smooth="yes"/>
      <point x="209" y="627" type="line" smooth="yes"/>
      <point x="209" y="214"/>
      <point x="398" y="-32"/>
    </contour>
    <contour>
      <point x="17" y="482" type="line"/>
      <point x="873" y="482" type="line"/>
      <point x="873" y="620" type="line"/>
      <point x="17" y="620" type="line"/>
    </contour>
    <contour>
      <point x="17" y="817" type="line"/>
      <point x="873" y="817" type="line"/>
      <point x="873" y="955" type="line"/>
      <point x="17" y="955" type="line"/>
    </contour>
  </outline>
</glyph>
<glyph name="leftArrow" format="2">
  <advance width="1200"/>
  <unicode hex="2190"/>
  <outline>
    <contour>
      <point x="600" y="76" type="line"/>
      <point x="717" y="187" type="line"/>
      <point x="303" y="616" type="line"/>
      <point x="303" y="644" type="line"/>
      <point x="717" y="1073" type="line"/>
      <point x="600" y="1184" type="line"/>
      <point x="94" y="630" type="line"/>
    </contour>
    <contour>
      <point x="644" y="544" type="line"/>
      <point x="1140" y="544" type="line"/>
      <point x="1140" y="716" type="line"/>
      <point x="644" y="716" type="line"/>
      <point x="216" y="697" type="line"/>
      <point x="216" y="563" type="line"/>
    </contour>
  </outline>
</glyph>
<glyph name="upArrow" format="2">
  <advance width="1200"/>
  <unicode hex="2191"/>
  <outline>
    <contour>
      <point x="164" y="612" type="line"/>
      <point x="586" y="1018" type="line"/>
      <point x="614" y="1018" type="line"/>
      <point x="1035" y="612" type="line"/>
      <point x="1146" y="729" type="line"/>
      <point x="600" y="1227" type="line"/>
      <point x="54" y="729" type="line"/>
    </contour>
    <contour>
      <point x="511" y="25" type="line"/>
      <point x="689" y="25" type="line"/>
      <point x="689" y="677" type="line"/>
      <point x="667" y="1105" type="line"/>
      <point x="533" y="1105" type="line"/>
      <point x="511" y="677" type="line"/>
    </contour>
  </outline>
</glyph>
<glyph name="rightArrow" format="2">
  <advance width="1200"/>
  <unicode hex="2192"/>
  <outline>
    <contour>
      <point x="634" y="76" type="line"/>
      <point x="1140" y="630" type="line"/>
      <point x="634" y="1184" type="line"/>
      <point x="517" y="1073" type="line"/>
      <point x="931" y="644" type="line"/>
      <point x="931" y="616" type="line"/>
      <point x="517" y="187" type="line"/>
    </contour>
    <contour>
      <point x="94" y="544" type="line"/>
      <point x="590" y="544" type="line"/>
      <point x="1018" y="563" type="line"/>
      <point x="1018" y="697" type="line"/>
      <point x="590" y="716" type="line"/>
      <point x="94" y="716" type="line"/>
    </contour>
  </outline>
</glyph>
<glyph name="uni21E7" format="2">
  <advance width="1200"/>
  <unicode hex="21E7"/>
  <outline>
    <contour>
      <point x="418" y="166" type="curve" smooth="yes"/>
      <point x="782" y="166" type="line" smooth="yes"/>
      <point x="872" y="166"/>
      <point x="922" y="219"/>
      <point x="922" y="316" type="curve" smooth="yes"/>
      <point x="922" y="483" type="line"/>
      <point x="1070" y="483" type="line" smooth="yes"/>
      <point x="1146" y="483"/>
      <point x="1180" y="514"/>
      <point x="1180" y="582" type="curve" smooth="yes"/>
      <point x="1180" y="616"/>
      <point x="1162" y="649"/>
      <point x="1126" y="692" type="curve" smooth="yes"/>
      <point x="663" y="1239" type="line" smooth="yes"/>
      <point x="645" y="1260"/>
      <point x="622" y="1269"/>
      <point x="600" y="1269" type="curve" smooth="yes"/>
      <point x="577" y="1269"/>
      <point x="554" y="1260"/>
      <point x="536" y="1239" type="curve" smooth="yes"/>
      <point x="73" y="691" type="line" smooth="yes"/>
      <point x="37" y="648"/>
      <point x="20" y="615"/>
      <point x="20" y="582" type="curve" smooth="yes"/>
      <point x="20" y="514"/>
      <point x="54" y="483"/>
      <point x="130" y="483" type="curve" smooth="yes"/>
      <point x="278" y="483" type="line"/>
      <point x="278" y="316" type="line" smooth="yes"/>
      <point x="278" y="219"/>
      <point x="328" y="166"/>
    </contour>
    <contour>
      <point x="464" y="299" type="line" smooth="yes"/>
      <point x="432" y="299"/>
      <point x="414" y="317"/>
      <point x="414" y="349" type="curve" smooth="yes"/>
      <point x="415" y="616" type="line"/>
      <point x="109" y="616" type="line"/>
      <point x="151" y="570" type="line"/>
      <point x="649" y="1153" type="line"/>
      <point x="551" y="1153" type="line"/>
      <point x="1049" y="570" type="line"/>
      <point x="1091" y="616" type="line"/>
      <point x="785" y="616" type="line"/>
      <point x="786" y="349" type="line" smooth="yes"/>
      <point x="786" y="317"/>
      <point x="768" y="299"/>
      <point x="736" y="299" type="curve" smooth="yes"/>
    </contour>
  </outline>
</glyph>
<glyph name="proportion" format="2">
  <advance width="1200"/>
  <unicode hex="2237"/>
  <outline>
    <contour>
      <point x="877" y="829" type="curve" smooth="yes"/>
      <point x="964" y="829"/>
      <point x="1030" y="895"/>
      <point x="1030" y="984" type="curve" smooth="yes"/>
      <point x="1030" y="1072"/>
      <point x="965" y="1138"/>
      <point x="877" y="1138" type="curve" smooth="yes"/>
      <point x="789" y="1138"/>
      <point x="724" y="1073"/>
      <point x="724" y="984" type="curve" smooth="yes"/>
      <point x="724" y="895"/>
      <point x="789" y="829"/>
    </contour>
    <contour>
      <point x="323" y="122" type="curve" smooth="yes"/>
      <point x="411" y="122"/>
      <point x="476" y="188"/>
      <point x="476" y="276" type="curve" smooth="yes"/>
      <point x="476" y="365"/>
      <point x="410" y="431"/>
      <point x="323" y="431" type="curve" smooth="yes"/>
      <point x="235" y="431"/>
      <point x="170" y="365"/>
      <point x="170" y="276" type="curve" smooth="yes"/>
      <point x="170" y="188"/>
      <point x="235" y="122"/>
    </contour>
    <contour>
      <point x="877" y="122" type="curve" smooth="yes"/>
      <point x="965" y="122"/>
      <point x="1030" y="188"/>
      <point x="1030" y="276" type="curve" smooth="yes"/>
      <point x="1030" y="365"/>
      <point x="964" y="431"/>
      <point x="877" y="431" type="curve" smooth="yes"/>
      <point x="789" y="431"/>
      <point x="724" y="365"/>
      <point x="724" y="276" type="curve" smooth="yes"/>
      <point x="724" y="187"/>
      <point x="789" y="122"/>
    </contour>
    <contour>
      <point x="323" y="829" type="curve" smooth="yes"/>
      <point x="410" y="829"/>
      <point x="476" y="895"/>
      <point x="476" y="984" type="curve" smooth="yes"/>
      <point x="476" y="1072"/>
      <point x="411" y="1138"/>
      <point x="323" y="1138" type="curve" smooth="yes"/>
      <point x="235" y="1138"/>
      <point x="170" y="1072"/>
      <point x="170" y="984" type="curve" smooth="yes"/>
      <point x="170" y="895"/>
      <point x="236" y="829"/>
    </contour>
  </outline>
</glyph>
<glyph name="optionKey" format="2">
  <advance width="1200"/>
  <unicode hex="2325"/>
  <outline>
    <contour>
      <point x="753" y="157" type="line"/>
      <point x="936" y="157" type="line"/>
      <point x="444" y="1275" type="line"/>
      <point x="262" y="1275" type="line"/>
    </contour>
    <contour>
      <point x="23" y="1095" type="line"/>
      <point x="397" y="1095" type="line"/>
      <point x="373" y="1275" type="line"/>
      <point x="23" y="1275" type="line"/>
    </contour>
    <contour>
      <point x="815" y="157" type="line"/>
      <point x="1177" y="157" type="line"/>
      <point x="1177" y="337" type="line"/>
      <point x="785" y="337" type="line"/>
    </contour>
    <contour>
      <point x="715" y="1095" type="line"/>
      <point x="1177" y="1095" type="line"/>
      <point x="1177" y="1275" type="line"/>
      <point x="715" y="1275" type="line"/>
    </contour>
  </outline>
</glyph>
<glyph name="boxHeavyHorizontal" format="2">
  <advance width="1200"/>
  <unicode hex="2501"/>
  <outline>
    <contour>
      <point x="-90" y="482" type="line"/>
      <point x="1290" y="482" type="line"/>
      <point x="1290" y="806" type="line"/>
      <point x="-90" y="806" type="line"/>
    </contour>
  </outline>
</glyph>
<glyph name="boxLightVertical" format="2">
  <advance width="1200"/>
  <unicode hex="2502"/>
  <outline>
    <contour>
      <point x="510" y="-656" type="line"/>
      <point x="690" y="-656" type="line"/>
      <point x="690" y="1944" type="line"/>
      <point x="510" y="1944" type="line"/>
    </contour>
  </outline>
</glyph>
<glyph name="boxHeavyTripleDashHorizontal" format="2">
  <advance width="1200"/>
  <unicode hex="2505"/>
  <outline>
    <contour>
      <point x="867" y="482" type="line"/>
      <point x="1133" y="482" type="line"/>
      <point x="1133" y="806" type="line"/>
      <point x="867" y="806" type="line"/>
    </contour>
    <contour>
      <point x="67" y="482" type="line"/>
      <point x="333" y="482" type="line"/>
      <point x="333" y="806" type="line"/>
      <point x="67" y="806" type="line"/>
    </contour>
    <contour>
      <point x="467" y="482" type="line"/>
      <point x="733" y="482" type="line"/>
      <point x="733" y="806" type="line"/>
      <point x="467" y="806" type="line"/>
    </contour>
  </outline>
</glyph>
<glyph name="boxHeavyQuadrupleDashHorizontal" format="2">
  <advance width="1200"/>
  <unicode hex="2509"/>
  <outline>
    <contour>
      <point x="938" y="482" type="line"/>
      <point x="1163" y="482" type="line"/>
      <point x="1163" y="806" type="line"/>
      <point x="938" y="806" type="line"/>
    </contour>
    <contour>
      <point x="38" y="482" type="line"/>
      <point x="263" y="482" type="line"/>
      <point x="263" y="806" type="line"/>
      <point x="38" y="806" type="line"/>
    </contour>
    <contour>
      <point x="338" y="482" type="line"/>
      <point x="563" y="482" type="line"/>
      <point x="563" y="806" type="line"/>
      <point x="338" y="806" type="line"/>
    </contour>
    <contour>
      <point x="638" y="482" type="line"/>
      <point x="863" y="482" type="line"/>
      <point x="863" y="806" type="line"/>
      <point x="638" y="806" type="line"/>
    </contour>
  </outline>
</glyph>
<glyph name="boxLightDownAndRight" format="2">
  <advance width="1200"/>
  <unicode hex="250C"/>
  <outline>
    <contour>
      <point x="510" y="-656" type="line"/>
      <point x="690" y="-656" type="line"/>
      <point x="690" y="554" type="line"/>
      <point x="1290" y="554" type="line"/>
      <point x="1290" y="734" type="line"/>
      <point x="510" y="734" type="line"/>
    </contour>
  </outline>
</glyph>
<glyph name="boxDownLightAndRightHeavy" format="2">
  <advance width="1200"/>
  <unicode hex="250D"/>
  <outline>
    <contour>
      <point x="510" y="-656" type="line"/>
      <point x="690" y="-656" type="line"/>
      <point x="690" y="482" type="line"/>
      <point x="1290" y="482" type="line"/>
      <point x="1290" y="806" type="line"/>
      <point x="510" y="806" type="line"/>
    </contour>
  </outline>
</glyph>
<glyph name="boxHeavyDownAndRight" format="2">
  <advance width="1200"/>
  <unicode hex="250F"/>
  <outline>
    <contour>
      <point x="438" y="-656" type="line"/>
      <point x="762" y="-656" type="line"/>
      <point x="762" y="482" type="line"/>
      <point x="1290" y="482" type="line"/>
      <point x="1290" y="806" type="line"/>
      <point x="438" y="806" type="line"/>
    </contour>
  </outline>
</glyph>
<glyph name="boxHeavyDownAndLeft" format="2">
  <advance width="1200"/>
  <unicode hex="2513"/>
  <outline>
    <contour>
      <point x="438" y="-656" type="line"/>
      <point x="762" y="-656" type="line"/>
      <point x="762" y="806" type="line"/>
      <point x="-90" y="806" type="line"/>
      <point x="-90" y="482" type="line"/>
      <point x="438" y="482" type="line"/>
    </contour>
  </outline>
</glyph>
<glyph name="boxUpHeavyAndRightLight" format="2">
  <advance width="1200"/>
  <unicode hex="2516"/>
  <outline>
    <contour>
      <point x="438" y="554" type="line"/>
      <point x="1290" y="554" type="line"/>
      <point x="1290" y="734" type="line"/>
      <point x="762" y="734" type="line"/>
      <point x="762" y="1944" type="line"/>
      <point x="438" y="1944" type="line"/>
    </contour>
  </outline>
</glyph>
<glyph name="boxUpHeavyAndLeftLight" format="2">
  <advance width="1200"/>
  <unicode hex="251A"/>
  <outline>
    <contour>
      <point x="-90" y="554" type="line"/>
      <point x="762" y="554" type="line"/>
      <point x="762" y="1944" type="line"/>
      <point x="438" y="1944" type="line"/>
      <point x="438" y="734" type="line"/>
      <point x="-90" y="734" type="line"/>
    </contour>
  </outline>
</glyph>
<glyph name="boxHeavyUpAndLeft" format="2">
  <advance width="1200"/>
  <unicode hex="251B"/>
  <outline>
    <contour>
      <point x="-90" y="482" type="line"/>
      <point x="762" y="482" type="line"/>
      <point x="762" y="1944" type="line"/>
      <point x="438" y="1944" type="line"/>
      <point x="438" y="806" type="line"/>
      <point x="-90" y="806" type="line"/>
    </contour>
  </outline>
</glyph>
<glyph name="boxDownHeavyAndRightUpLight" format="2">
  <advance width="1200"/>
  <unicode hex="251F"/>
  <outline>
    <contour>
      <point x="438" y="-656" type="line"/>
      <point x="762" y="-656" type="line"/>
      <point x="762" y="554" type="line"/>
      <point x="1290" y="554" type="line"/>
      <point x="1290" y="734" type="line"/>
      <point x="690" y="734" type="line"/>
      <point x="690" y="1944" type="line"/>
      <point x="510" y="1944" type="line"/>
      <point x="510" y="734" type="line"/>
      <point x="438" y="734" type="line"/>
    </contour>
  </outline>
</glyph>
<glyph name="boxUpLightAndRightDownHeavy" format="2">
  <advance width="1200"/>
  <unicode hex="2522"/>
  <outline>
    <contour>
      <point x="438" y="-656" type="line"/>
      <point x="762" y="-656" type="line"/>
      <point x="762" y="482" type="line"/>
      <point x="1290" y="482" type="line"/>
      <point x="1290" y="806" type="line"/>
      <point x="690" y="806" type="line"/>
      <point x="690" y="1944" type="line"/>
      <point x="510" y="1944" type="line"/>
      <point x="510" y="806" type="line"/>
      <point x="438" y="806" type="line"/>
    </contour>
  </outline>
</glyph>
<glyph name="boxHeavyVerticalAndRight" format="2">
  <advance width="1200"/>
  <unicode hex="2523"/>
  <outline>
    <contour>
      <point x="438" y="-656" type="line"/>
      <point x="762" y="-656" type="line"/>
      <point x="762" y="482" type="line"/>
      <point x="1290" y="482" type="line"/>
      <point x="1290" y="806" type="line"/>
      <point x="762" y="806" type="line"/>
      <point x="762" y="1944" type="line"/>
      <point x="438" y="1944" type="line"/>
    </contour>
  </outline>
</glyph>
<glyph name="boxDownHeavyAndLeftUpLight" format="2">
  <advance width="1200"/>
  <unicode hex="2527"/>
  <outline>
    <contour>
      <point x="438" y="-656" type="line"/>
      <point x="762" y="-656" type="line"/>
      <point x="762" y="734" type="line"/>
      <point x="690" y="734" type="line"/>
      <point x="690" y="1944" type="line"/>
      <point x="510" y="1944" type="line"/>
      <point x="510" y="734" type="line"/>
      <point x="-90" y="734" type="line"/>
      <point x="-90" y="554" type="line"/>
      <point x="438" y="554" type="line"/>
    </contour>
  </outline>
</glyph>
<glyph name="boxVerticalHeavyAndLeftLight" format="2">
  <advance width="1200"/>
  <unicode hex="2528"/>
  <outline>
    <contour>
      <point x="438" y="-656" type="line"/>
      <point x="762" y="-656" type="line"/>
      <point x="762" y="1944" type="line"/>
      <point x="438" y="1944" type="line"/>
      <point x="438" y="734" type="line"/>
      <point x="-90" y="734" type="line"/>
      <point x="-90" y="554" type="line"/>
      <point x="438" y="554" type="line"/>
    </contour>
  </outline>
</glyph>
<glyph name="boxDownLightAndHorizontalHeavy" format="2">
  <advance width="1200"/>
  <unicode hex="252F"/>
  <outline>
    <contour>
      <point x="510" y="-656" type="line"/>
      <point x="690" y="-656" type="line"/>
      <point x="690" y="482" type="line"/>
      <point x="1290" y="482" type="line"/>
      <point x="1290" y="806" type="line"/>
      <point x="-90" y="806" type="line"/>
      <point x="-90" y="482" type="line"/>
      <point x="510" y="482" type="line"/>
    </contour>
  </outline>
</glyph>
<glyph name="boxDownHeavyAndHorizontalLight" format="2">
  <advance width="1200"/>
  <unicode hex="2530"/>
  <outline>
    <contour>
      <point x="438" y="-656" type="line"/>
      <point x="762" y="-656" type="line"/>
      <point x="762" y="554" type="line"/>
      <point x="1290" y="554" type="line"/>
      <point x="1290" y="734" type="line"/>
      <point x="-90" y="734" type="line"/>
      <point x="-90" y="554" type="line"/>
      <point x="438" y="554" type="line"/>
    </contour>
  </outline>
</glyph>
<glyph name="boxHeavyDownAndHorizontal" format="2">
  <advance width="1200"/>
  <unicode hex="2533"/>
  <outline>
    <contour>
      <point x="438" y="-656" type="line"/>
      <point x="762" y="-656" type="line"/>
      <point x="762" y="482" type="line"/>
      <point x="1290" y="482" type="line"/>
      <point x="1290" y="806" type="line"/>
      <point x="-90" y="806" type="line"/>
      <point x="-90" y="482" type="line"/>
      <point x="438" y="482" type="line"/>
    </contour>
  </outline>
</glyph>
<glyph name="boxRightLightAndLeftUpHeavy" format="2">
  <advance width="1200"/>
  <unicode hex="2539"/>
  <outline>
    <contour>
      <point x="-90" y="482" type="line"/>
      <point x="762" y="482" type="line"/>
      <point x="762" y="554" type="line"/>
      <point x="1290" y="554" type="line"/>
      <point x="1290" y="734" type="line"/>
      <point x="762" y="734" type="line"/>
      <point x="762" y="1944" type="line"/>
      <point x="438" y="1944" type="line"/>
      <point x="438" y="806" type="line"/>
      <point x="-90" y="806" type="line"/>
    </contour>
  </outline>
</glyph>
<glyph name="boxHeavyUpAndHorizontal" format="2">
  <advance width="1200"/>
  <unicode hex="253B"/>
  <outline>
    <contour>
      <point x="-90" y="482" type="line"/>
      <point x="1290" y="482" type="line"/>
      <point x="1290" y="806" type="line"/>
      <point x="762" y="806" type="line"/>
      <point x="762" y="1944" type="line"/>
      <point x="438" y="1944" type="line"/>
      <point x="438" y="806" type="line"/>
      <point x="-90" y="806" type="line"/>
    </contour>
  </outline>
</glyph>
<glyph name="boxLightVerticalAndHorizontal" format="2">
  <advance width="1200"/>
  <unicode hex="253C"/>
  <outline>
    <contour>
      <point x="510" y="-656" type="line"/>
      <point x="690" y="-656" type="line"/>
      <point x="690" y="554" type="line"/>
      <point x="1290" y="554" type="line"/>
      <point x="1290" y="734" type="line"/>
      <point x="690" y="734" type="line"/>
      <point x="690" y="1944" type="line"/>
      <point x="510" y="1944" type="line"/>
      <point x="510" y="734" type="line"/>
      <point x="-90" y="734" type="line"/>
      <point x="-90" y="554" type="line"/>
      <point x="510" y="554" type="line"/>
    </contour>
  </outline>
</glyph>
<glyph name="boxRightHeavyAndLeftVerticalLight" format="2">
  <advance width="1200"/>
  <unicode hex="253E"/>
  <outline>
    <contour>
      <point x="510" y="-656" type="line"/>
      <point x="690" y="-656" type="line"/>
      <point x="690" y="482" type="line"/>
      <point x="1290" y="482" type="line"/>
      <point x="1290" y="806" type="line"/>
      <point x="690" y="806" type="line"/>
      <point x="690" y="1944" type="line"/>
      <point x="510" y="1944" type="line"/>
      <point x="510" y="734" type="line"/>
      <point x="-90" y="734" type="line"/>
      <point x="-90" y="554" type="line"/>
      <point x="510" y="554" type="line"/>
    </contour>
  </outline>
</glyph>
<glyph name="boxLightDoubleDashVertical" format="2">
  <advance width="1200"/>
  <unicode hex="254E"/>
  <outline>
    <contour>
      <point x="510" y="957" type="line"/>
      <point x="690" y="957" type="line"/>
      <point x="690" y="1582" type="line"/>
      <point x="510" y="1582" type="line"/>
    </contour>
    <contour>
      <point x="510" y="-293" type="line"/>
      <point x="690" y="-293" type="line"/>
      <point x="690" y="332" type="line"/>
      <point x="510" y="332" type="line"/>
    </contour>
  </outline>
</glyph>
<glyph name="boxHeavyDoubleDashVertical" format="2">
  <advance width="1200"/>
  <unicode hex="254F"/>
  <outline>
    <contour>
      <point x="438" y="957" type="line"/>
      <point x="762" y="957" type="line"/>
      <point x="762" y="1582" type="line"/>
      <point x="438" y="1582" type="line"/>
    </contour>
    <contour>
      <point x="438" y="-293" type="line"/>
      <point x="762" y="-293" type="line"/>
      <point x="762" y="332" type="line"/>
      <point x="438" y="332" type="line"/>
    </contour>
  </outline>
</glyph>
<glyph name="boxDownSingleAndRightDouble" format="2">
  <advance width="1200"/>
  <unicode hex="2552"/>
  <outline>
    <contour>
      <point x="510" y="-656" type="line"/>
      <point x="690" y="-656" type="line"/>
      <point x="690" y="374" type="line"/>
      <point x="1290" y="374" type="line"/>
      <point x="1290" y="554" type="line"/>
      <point x="690" y="554" type="line"/>
      <point x="690" y="734" type="line"/>
      <point x="1290" y="734" type="line"/>
      <point x="1290" y="914" type="line"/>
      <point x="510" y="914" type="line"/>
    </contour>
  </outline>
</glyph>
<glyph name="boxVerticalSingleAndLeftDouble" format="2">
  <advance width="1200"/>
  <unicode hex="2561"/>
  <outline>
    <contour>
      <point x="510" y="-656" type="line"/>
      <point x="690" y="-656" type="line"/>
      <point x="690" y="1944" type="line"/>
      <point x="510" y="1944" type="line"/>
      <point x="510" y="914" type="line"/>
      <point x="-90" y="914" type="line"/>
      <point x="-90" y="734" type="line"/>
      <point x="510" y="734" type="line"/>
      <point x="510" y="554" type="line"/>
      <point x="-90" y="554" type="line"/>
      <point x="-90" y="374" type="line"/>
      <point x="510" y="374" type="line"/>
    </contour>
  </outline>
</glyph>
<glyph name="boxLightArcUpAndLeft" format="2">
  <advance width="1200"/>
  <unicode hex="256F"/>
  <outline>
    <contour>
      <point x="-90" y="554" type="line"/>
      <point x="90" y="554" type="line" smooth="yes"/>
      <point x="458" y="554"/>
      <point x="690" y="786"/>
      <point x="690" y="1154" type="curve" smooth="yes"/>
      <point x="690" y="1944" type="line"/>
      <point x="510" y="1944" type="line"/>
      <point x="510" y="1154" type="line" smooth="yes"/>
      <point x="510" y="892"/>
      <point x="352" y="734"/>
      <point x="90" y="734" type="curve" smooth="yes"/>
      <point x="-90" y="734" type="line"/>
    </contour>
  </outline>
</glyph>
<glyph name="boxLightDiagonalUpperRightToLowerLeft" format="2">
  <advance width="1200"/>
  <unicode hex="2571"/>
  <outline>
    <contour>
      <point x="0" y="-606" type="line"/>
      <point x="100" y="-606" type="line"/>
      <point x="1200" y="1686" type="line"/>
      <point x="1200" y="1894" type="line"/>
      <point x="1100" y="1894" type="line"/>
      <point x="0" y="-398" type="line"/>
    </contour>
  </outline>
</glyph>
<glyph name="boxLightDiagonalCross" format="2">
  <advance width="1200"/>
  <unicode hex="2573"/>
  <outline>
    <contour>
      <point x="0" y="-606" type="line"/>
      <point x="100" y="-606" type="line"/>
      <point x="600" y="436" type="line"/>
      <point x="1100" y="-606" type="line"/>
      <point x="1200" y="-606" type="line"/>
      <point x="1200" y="-398" type="line"/>
      <point x="700" y="644" type="line"/>
      <point x="1200" y="1686" type="line"/>
      <point x="1200" y="1894" type="line"/>
      <point x="1100" y="1894" type="line"/>
      <point x="600" y="852" type="line"/>
      <point x="100" y="1894" type="line"/>
      <point x="0" y="1894" type="line"/>
      <point x="0" y="1686" type="line"/>
      <point x="500" y="644" type="line"/>
      <point x="0" y="-398" type="line"/>
    </contour>
  </outline>
</glyph>
<glyph name="boxLightUp" format="2">
  <advance width="1200"/>
  <unicode hex="2575"/>
  <outline>
    <contour>
      <point x="510" y="554" type="line"/>
      <point x="690" y="554" type="line"/>
      <point x="690" y="1944" type="line"/>
      <point x="510" y="1944" type="line"/>
    </contour>
  </outline>
</glyph>
<glyph name="boxLightRight" format="2">
  <advance width="1200"/>
  <unicode hex="2576"/>
  <outline>
    <contour>
      <point x="510" y="554" type="line"/>
      <point x="1290" y="554" type="line"/>
      <point x="1290" y="734" type="line"/>
      <point x="510" y="734" type="line"/>
    </contour>
  </outline>
</glyph>
<glyph name="boxLightDown" format="2">
  <advance width="1200"/>
  <unicode hex="2577"/>
  <outline>
    <contour>
      <point x="510" y="-656" type="line"/>
      <point x="690" y="-656" type="line"/>
      <point x="690" y="734" type="line"/>
      <point x="510" y="734" type="line"/>
    </contour>
  </outline>
</glyph>
<glyph name="boxLightUpAndHeavyDown" format="2">
  <advance width="1200"/>
  <unicode hex="257D"/>
  <outline>
    <contour>
      <point x="438" y="-656" type="line"/>
      <point x="762" y="-656" type="line"/>
      <point x="762" y="734" type="line"/>
      <point x="690" y="734" type="line"/>
      <point x="690" y="1944" type="line"/>
      <point x="510" y="1944" type="line"/>
      <point x="510" y="734" type="line"/>
      <point x="438" y="734" type="line"/>
    </contour>
  </outline>
</glyph>
<glyph name="boxHeavyUpAndLightDown" format="2">
  <advance width="1200"/>
  <unicode hex="257F"/>
  <outline>
    <contour>
      <point x="510" y="-656" type="line"/>
      <point x="690" y="-656" type="line"/>
      <point x="690" y="554" type="line"/>
      <point x="762" y="554" type="line"/>
      <point x="762" y="1944" type="line"/>
      <point x="438" y="1944" type="line"/>
      <point x="438" y="554" type="line"/>
      <point x="510" y="554" type="line"/>
    </contour>
  </outline>
</glyph>
<glyph name="leftBlock" format="2">
  <advance width="1200"/>
  <unicode hex="258C"/>
  <outline>
    <contour>
      <point x="0" y="-656" type="line"/>
      <point x="600" y="-656" type="line"/>
      <point x="600" y="1944" type="line"/>
      <point x="0" y="1944" type="line"/>
    </contour>
  </outline>
</glyph>
<glyph name="shademedium" format="2">
  <advance width="1200"/>
  <unicode hex="2592"/>
  <outline>
    <contour>
      <point x="8" y="1179" type="line"/>
      <point x="192" y="1179" type="line"/>
      <point x="192" y="1363" type="line"/>
      <point x="8" y="1363" type="line"/>
    </contour>
    <contour>
      <point x="8" y="822" type="line"/>
      <point x="192" y="822" type="line"/>
      <point x="192" y="1005" type="line"/>
      <point x="8" y="1005" type="line"/>
    </contour>
    <contour>
      <point x="8" y="464" type="line"/>
      <point x="192" y="464" type="line"/>
      <point x="192" y="648" type="line"/>
      <point x="8" y="648" type="line"/>
    </contour>
    <contour>
      <point x="8" y="107" type="line"/>
      <point x="192" y="107" type="line"/>
      <point x="192" y="290" type="line"/>
      <point x="8" y="290" type="line"/>
    </contour>
    <contour>
      <point x="8" y="-250" type="line"/>
      <point x="192" y="-250" type="line"/>
      <point x="192" y="-66" type="line"/>
      <point x="8" y="-66" type="line"/>
    </contour>
    <contour>
      <point x="209" y="1713" type="line"/>
      <point x="393" y="1713" type="line"/>
      <point x="393" y="1896" type="line"/>
      <point x="209" y="1896" type="line"/>
    </contour>
    <contour>
      <point x="209" y="1359" type="line"/>
      <point x="393" y="1359" type="line"/>
      <point x="393" y="1543" type="line"/>
      <point x="209" y="1543" type="line"/>
    </contour>
    <contour>
      <point x="209" y="1001" type="line"/>
      <point x="393" y="1001" type="line"/>
      <point x="393" y="1185" type="line"/>
      <point x="209" y="1185" type="line"/>
    </contour>
    <contour>
      <point x="209" y="644" type="line"/>
      <point x="393" y="644" type="line"/>
      <point x="393" y="828" type="line"/>
      <point x="209" y="828" type="line"/>
    </contour>
    <contour>
      <point x="209" y="286" type="line"/>
      <point x="393" y="286" type="line"/>
      <point x="393" y="470" type="line"/>
      <point x="209" y="470" type="line"/>
    </contour>
    <contour>
      <point x="209" y="-72" type="line"/>
      <point x="393" y="-72" type="line"/>
      <point x="393" y="112" type="line"/>
      <point x="209" y="112" type="line"/>
    </contour>
    <contour>
      <point x="209" y="-430" type="line"/>
      <point x="393" y="-430" type="line"/>
      <point x="393" y="-246" type="line"/>
      <point x="209" y="-246" type="line"/>
    </contour>
    <contour>
      <point x="408" y="1537" type="line"/>
      <point x="591" y="1537" type="line"/>
      <point x="591" y="1720" type="line"/>
      <point x="408" y="1720" type="line"/>
    </contour>
    <contour>
      <point x="408" y="1180" type="line"/>
      <point x="592" y="1180" type="line"/>
      <point x="592" y="1363" type="line"/>
      <point x="408" y="1363" type="line"/>
    </contour>
    <contour>
      <point x="408" y="822" type="line"/>
      <point x="592" y="822" type="line"/>
      <point x="592" y="1005" type="line"/>
      <point x="408" y="1005" type="line"/>
    </contour>
    <contour>
      <point x="408" y="464" type="line"/>
      <point x="592" y="464" type="line"/>
      <point x="592" y="648" type="line"/>
      <point x="408" y="648" type="line"/>
    </contour>
    <contour>
      <point x="408" y="107" type="line"/>
      <point x="592" y="107" type="line"/>
      <point x="592" y="291" type="line"/>
      <point x="408" y="291" type="line"/>
    </contour>
    <contour>
      <point x="408" y="-251" type="line"/>
      <point x="592" y="-251" type="line"/>
      <point x="592" y="-67" type="line"/>
      <point x="408" y="-67" type="line"/>
    </contour>
    <contour>
      <point x="608" y="1713" type="line"/>
      <point x="792" y="1713" type="line"/>
      <point x="792" y="1896" type="line"/>
      <point x="608" y="1896" type="line"/>
    </contour>
    <contour>
      <point x="609" y="1357" type="line"/>
      <point x="793" y="1357" type="line"/>
      <point x="793" y="1541" type="line"/>
      <point x="609" y="1541" type="line"/>
    </contour>
    <contour>
      <point x="609" y="1000" type="line"/>
      <point x="793" y="1000" type="line"/>
      <point x="793" y="1183" type="line"/>
      <point x="609" y="1183" type="line"/>
    </contour>
    <contour>
      <point x="609" y="642" type="line"/>
      <point x="793" y="642" type="line"/>
      <point x="793" y="826" type="line"/>
      <point x="609" y="826" type="line"/>
    </contour>
    <contour>
      <point x="609" y="286" type="line"/>
      <point x="793" y="286" type="line"/>
      <point x="793" y="469" type="line"/>
      <point x="609" y="469" type="line"/>
    </contour>
    <contour>
      <point x="609" y="-73" type="line"/>
      <point x="793" y="-73" type="line"/>
      <point x="793" y="111" type="line"/>
      <point x="609" y="111" type="line"/>
    </contour>
    <contour>
      <point x="609" y="-430" type="line"/>
      <point x="793" y="-430" type="line"/>
      <point x="793" y="-246" type="line"/>
      <point x="609" y="-246" type="line"/>
    </contour>
    <contour>
      <point x="808" y="1537" type="line"/>
      <point x="991" y="1537" type="line"/>
      <point x="991" y="1720" type="line"/>
      <point x="808" y="1720" type="line"/>
    </contour>
    <contour>
      <point x="808" y="1180" type="line"/>
      <point x="991" y="1180" type="line"/>
      <point x="991" y="1363" type="line"/>
      <point x="808" y="1363" type="line"/>
    </contour>
    <contour>
      <point x="808" y="822" type="line"/>
      <point x="991" y="822" type="line"/>
      <point x="991" y="1005" type="line"/>
      <point x="808" y="1005" type="line"/>
    </contour>
    <contour>
      <point x="808" y="464" type="line"/>
      <point x="991" y="464" type="line"/>
      <point x="991" y="648" type="line"/>
      <point x="808" y="648" type="line"/>
    </contour>
    <contour>
      <point x="808" y="107" type="line"/>
      <point x="991" y="107" type="line"/>
      <point x="991" y="291" type="line"/>
      <point x="808" y="291" type="line"/>
    </contour>
    <contour>
      <point x="808" y="-251" type="line"/>
      <point x="991" y="-251" type="line"/>
      <point x="991" y="-67" type="line"/>
      <point x="808" y="-67" type="line"/>
    </contour>
    <contour>
      <point x="1009" y="1713" type="line"/>
      <point x="1192" y="1713" type="line"/>
      <point x="1192" y="1896" type="line"/>
      <point x="1009" y="1896" type="line"/>
    </contour>
    <contour>
      <point x="1009" y="1357" type="line"/>
      <point x="1192" y="1357" type="line"/>
      <point x="1192" y="1541" type="line"/>
      <point x="1009" y="1541" type="line"/>
    </contour>
    <contour>
      <point x="1009" y="1000" type="line"/>
      <point x="1192" y="1000" type="line"/>
      <point x="1192" y="1183" type="line"/>
      <point x="1009" y="1183" type="line"/>
    </contour>
    <contour>
      <point x="1009" y="642" type="line"/>
      <point x="1192" y="642" type="line"/>
      <point x="1192" y="826" type="line"/>
      <point x="1009" y="826" type="line"/>
    </contour>
    <contour>
      <point x="1009" y="286" type="line"/>
      <point x="1192" y="286" type="line"/>
      <point x="1192" y="469" type="line"/>
      <point x="1009" y="469" type="line"/>
    </contour>
    <contour>
      <point x="1009" y="-73" type="line"/>
      <point x="1192" y="-73" type="line"/>
      <point x="1192" y="111" type="line"/>
      <point x="1009" y="111" type="line"/>
    </contour>
    <contour>
      <point x="1009" y="-430" type="line"/>
      <point x="1192" y="-430" type="line"/>
      <point x="1192" y="-246" type="line"/>
      <point x="1009" y="-246" type="line"/>
    </contour>
    <contour>
      <point x="8" y="-608" type="line"/>
      <point x="192" y="-608" type="line"/>
      <point x="192" y="-424" type="line"/>
      <point x="8" y="-424" type="line"/>
    </contour>
    <contour>
      <point x="408" y="-608" type="line"/>
      <point x="592" y="-608" type="line"/>
      <point x="592" y="-424" type="line"/>
      <point x="408" y="-424" type="line"/>
    </contour>
    <contour>
      <point x="808" y="-608" type="line"/>
      <point x="991" y="-608" type="line"/>
      <point x="991" y="-424" type="line"/>
      <point x="808" y="-424" type="line"/>
    </contour>
    <contour>
      <point x="8" y="1537" type="line"/>
      <point x="192" y="1537" type="line"/>
      <point x="192" y="1720" type="line"/>
      <point x="8" y="1720" type="line"/>
    </contour>
  </outline>
</glyph>
<glyph name="blackSquare" format="2">
  <advance width="1200"/>
  <unicode hex="25A0"/>
  <outline>
    <contour>
      <point x="134" y="250" type="line"/>
      <point x="1066" y="250" type="line"/>
      <point x="1066" y="1182" type="line"/>
      <point x="134" y="1182" type="line"/>
    </contour>
  </outline>
</glyph>
<glyph name="whiteSmallSquare" format="2">
  <advance width="1200"/>
  <unicode hex="25AB"/>
  <outline>
    <contour>
      <point x="287" y="271" type="line"/>
      <point x="913" y="271" type="line"/>
      <point x="913" y="897" type="line"/>
      <point x="287" y="897" type="line"/>
    </contour>
    <contour>
      <point x="393" y="375" type="line"/>
      <point x="393" y="793" type="line"/>
      <point x="806" y="793" type="line"/>
      <point x="806" y="375" type="line"/>
    </contour>
  </outline>
</glyph>
<glyph name="leftBlackPointer" format="2">
  <advance width="1200"/>
  <unicode hex="25C4"/>
  <outline>
    <contour>
      <point x="1130" y="206" type="line"/>
      <point x="1130" y="1226" type="line"/>
      <point x="30" y="716" type="line"/>
    </contour>
  </outline>
</glyph>
<glyph name="blackDiamond" format="2">
  <advance width="1200"/>
  <unicode hex="25C6"/>
  <outline>
    <contour>
      <point x="600" y="196" type="line"/>
      <point x="1120" y="716" type="line"/>
      <point x="600" y="1236" type="line"/>
      <point x="80" y="716" type="line"/>
    </contour>
  </outline>
</glyph>
<glyph name="lozenge" format="2">
  <advance width="1200"/>
  <unicode hex="25CA"/>
  <outline>
    <contour>
      <point x="522" y="-32" type="line"/>
      <point x="679" y="-32" type="line"/>
      <point x="1092" y="716" type="line"/>
      <point x="679" y="1464" type="line"/>
      <point x="522" y="1464" type="line"/>
      <point x="108" y="716" type="line"/>
    </contour>
    <contour>
      <point x="600" y="161" type="line"/>
      <point x="262" y="778" type="line"/>
      <point x="262" y="654" type="line"/>
      <point x="600" y="1272" type="line"/>
      <point x="939" y="654" type="line"/>
      <point x="939" y="778" type="line"/>
    </contour>
  </outline>
</glyph>
<glyph name="whiteCircle" format="2">
  <advance width="1200"/>
  <unicode hex="25CB"/>
  <outline>
    <contour>
      <point x="600" y="160" type="curve" smooth="yes"/>
      <point x="917" y="160"/>
      <point x="1156" y="398"/>
      <point x="1156" y="716" type="curve" smooth="yes"/>
      <point x="1156" y="1034"/>
      <point x="917" y="1272"/>
      <point x="600" y="1272" type="curve" smooth="yes"/>
      <point x="283" y="1272"/>
      <point x="44" y="1033"/>
      <point x="44" y="716" type="curve" smooth="yes"/>
      <point x="44" y="399"/>
      <point x="283" y="160"/>
    </contour>
    <contour>
      <point x="600" y="283" type="curve" smooth="yes"/>
      <point x="353" y="283"/>
      <point x="171" y="467"/>
      <point x="171" y="716" type="curve" smooth="yes"/>
      <point x="171" y="965"/>
      <point x="353" y="1150"/>
      <point x="600" y="1150" type="curve" smooth="yes"/>
      <point x="847" y="1150"/>
      <point x="1030" y="965"/>
      <point x="1030" y="716" type="curve" smooth="yes"/>
      <point x="1030" y="467"/>
      <point x="847" y="283"/>
    </contour>
  </outline>
</glyph>
<glyph name="blackCircle" format="2">
  <advance width="1200"/>
  <unicode hex="25CF"/>
  <outline>
    <contour>
      <point x="600" y="230" type="curve" smooth="yes"/>
      <point x="875" y="230"/>
      <point x="1082" y="439"/>
      <point x="1082" y="716" type="curve" smooth="yes"/>
      <point x="1082" y="993"/>
      <point x="875" y="1202"/>
      <point x="600" y="1202" type="curve" smooth="yes"/>
      <point x="325" y="1202"/>
      <point x="118" y="993"/>
      <point x="118" y="716" type="curve" smooth="yes"/>
      <point x="118" y="439"/>
      <point x="325" y="230"/>
    </contour>
  </outline>
</glyph>
<glyph name="Eng.loclNSM" format="2">
  <advance width="1200"/>
  <outline>
    <contour>
      <point x="717" y="-446" type="curve" smooth="yes"/>
      <point x="943" y="-446"/>
      <point x="1092" y="-289"/>
      <point x="1092" y="-41" type="curve" smooth="yes"/>
      <point x="1092" y="1432" type="line"/>
      <point x="904" y="1432" type="line"/>
      <point x="904" y="665" type="line"/>
      <point x="925" y="334" type="line"/>
      <point x="920" y="334" type="line"/>
      <point x="298" y="1432" type="line"/>
      <point x="108" y="1432" type="line"/>
      <point x="108" y="0" type="line"/>
      <point x="296" y="0" type="line"/>
      <point x="296" y="806" type="line"/>
      <point x="274" y="1138" type="line"/>
      <point x="279" y="1138" type="line"/>
      <point x="934" y="0" type="line"/>
      <point x="911" y="99" type="line"/>
      <point x="911" y="-43" type="line" smooth="yes"/>
      <point x="911" y="-192"/>
      <point x="841" y="-270"/>
      <point x="712" y="-270" type="curve" smooth="yes"/>
      <point x="629" y="-270"/>
      <point x="555" y="-238"/>
      <point x="488" y="-177" type="curve"/>
      <point x="380" y="-316" type="line"/>
      <point x="471" y="-399"/>
      <point x="589" y="-446"/>
    </contour>
  </outline>
</glyph>
<glyph name="brevecomb_acutecomb" format="2">
  <anchor x="0" y="1047" name="_top"/>
  <outline>
    <contour>
      <point x="0" y="1152" type="curve" smooth="yes"/>
      <point x="212" y="1152"/>
      <point x="360" y="1300"/>
      <point x="360" y="1504" type="curve" smooth="yes"/>
      <point x="360" y="1517" type="line"/>
      <point x="208" y="1517" type="line"/>
      <point x="208" y="1502" type="line" smooth="yes"/>
      <point x="208" y="1377"/>
      <point x="136" y="1290"/>
      <point x="0" y="1290" type="curve" smooth="yes"/>
      <point x="-135" y="1290"/>
      <point x="-207" y="1377"/>
      <point x="-207" y="1502" type="curve" smooth="yes"/>
      <point x="-207" y="1517" type="line"/>
      <point x="-359" y="1517" type="line"/>
      <point x="-359" y="1504" type="line" smooth="yes"/>
      <point x="-359" y="1300"/>
      <point x="-212" y="1152"/>
    </contour>
    <contour>
      <point x="-104" y="1500" type="line"/>
      <point x="26" y="1500" type="line"/>
      <point x="261" y="1869" type="line"/>
      <point x="261" y="1880" type="line"/>
      <point x="57" y="1880" type="line"/>
      <point x="-104" y="1511" type="line"/>
    </contour>
  </outline>
</glyph>
<glyph name="brevecomb_hookabovecomb" format="2">
  <anchor x="0" y="1047" name="_top"/>
  <outline>
    <contour>
      <point x="0" y="1152" type="curve" smooth="yes"/>
      <point x="215" y="1152"/>
      <point x="371" y="1299"/>
      <point x="371" y="1505" type="curve" smooth="yes"/>
      <point x="371" y="1518" type="line"/>
      <point x="221" y="1518" type="line"/>
      <point x="221" y="1503" type="line" smooth="yes"/>
      <point x="221" y="1376"/>
      <point x="147" y="1289"/>
      <point x="0" y="1289" type="curve" smooth="yes"/>
      <point x="-146" y="1289"/>
      <point x="-220" y="1376"/>
      <point x="-220" y="1503" type="curve" smooth="yes"/>
      <point x="-220" y="1518" type="line"/>
      <point x="-371" y="1518" type="line"/>
      <point x="-371" y="1505" type="line" smooth="yes"/>
      <point x="-371" y="1299"/>
      <point x="-214" y="1152"/>
    </contour>
    <contour>
      <point x="-68" y="1460" type="line"/>
      <point x="97" y="1471"/>
      <point x="198" y="1562"/>
      <point x="198" y="1700" type="curve" smooth="yes"/>
      <point x="198" y="1833"/>
      <point x="99" y="1918"/>
      <point x="-55" y="1918" type="curve" smooth="yes"/>
      <point x="-116" y="1918"/>
      <point x="-172" y="1908"/>
      <point x="-225" y="1889" type="curve"/>
      <point x="-186" y="1760" type="line"/>
      <point x="-144" y="1773"/>
      <point x="-102" y="1780"/>
      <point x="-60" y="1780" type="curve" smooth="yes"/>
      <point x="21" y="1780"/>
      <point x="64" y="1750"/>
      <point x="64" y="1692" type="curve" smooth="yes"/>
      <point x="64" y="1630"/>
      <point x="14" y="1595"/>
      <point x="-83" y="1590" type="curve"/>
    </contour>
  </outline>
</glyph>
<glyph name="brevecomb_tildecomb" format="2">
  <anchor x="0" y="1047" name="_top"/>
  <outline>
    <contour>
      <point x="0" y="1152" type="curve" smooth="yes"/>
      <point x="210" y="1152"/>
      <point x="348" y="1290"/>
      <point x="348" y="1487" type="curve" smooth="yes"/>
      <point x="348" y="1499" type="line"/>
      <point x="195" y="1499" type="line"/>
      <point x="195" y="1484" type="line" smooth="yes"/>
      <point x="195" y="1367"/>
      <point x="121" y="1291"/>
      <point x="0" y="1291" type="curve" smooth="yes"/>
      <point x="-121" y="1291"/>
      <point x="-194" y="1367"/>
      <point x="-194" y="1484" type="curve" smooth="yes"/>
      <point x="-194" y="1499" type="line"/>
      <point x="-347" y="1499" type="line"/>
      <point x="-347" y="1487" type="line" smooth="yes"/>
      <point x="-347" y="1290"/>
      <point x="-209" y="1152"/>
    </contour>
    <contour>
      <point x="177" y="1600" type="curve" smooth="yes"/>
      <point x="297" y="1600"/>
      <point x="370" y="1682"/>
      <point x="370" y="1813" type="curve" smooth="yes"/>
      <point x="370" y="1913" type="line"/>
      <point x="220" y="1913" type="line"/>
      <point x="220" y="1822" type="line" smooth="yes"/>
      <point x="220" y="1771"/>
      <point x="197" y="1743"/>
      <point x="156" y="1743" type="curve" smooth="yes"/>
      <point x="116" y="1743"/>
      <point x="86" y="1762"/>
      <point x="17" y="1827" type="curve" smooth="yes"/>
      <point x="-47" y="1886"/>
      <point x="-96" y="1917"/>
      <point x="-172" y="1917" type="curve" smooth="yes"/>
      <point x="-292" y="1917"/>
      <point x="-369" y="1837"/>
      <point x="-369" y="1704" type="curve" smooth="yes"/>
      <point x="-369" y="1604" type="line"/>
      <point x="-219" y="1604" type="line"/>
      <point x="-219" y="1695" type="line" smooth="yes"/>
      <point x="-219" y="1746"/>
      <point x="-191" y="1774"/>
      <point x="-149" y="1774" type="curve" smooth="yes"/>
      <point x="-110" y="1774"/>
      <point x="-84" y="1755"/>
      <point x="-14" y="1689" type="curve" smooth="yes"/>
      <point x="49" y="1630"/>
      <point x="102" y="1600"/>
    </contour>
  </outline>
</glyph>
<glyph name="circumflexcomb_hookabovecomb" format="2">
  <anchor x="0" y="1047" name="_top"/>
  <outline>
    <contour>
      <point x="-382" y="1163" type="line"/>
      <point x="-182" y="1163" type="line"/>
      <point x="19" y="1415" type="line"/>
      <point x="-18" y="1415" type="line"/>
      <point x="183" y="1163" type="line"/>
      <point x="383" y="1163" type="line"/>
      <point x="383" y="1174" type="line"/>
      <point x="90" y="1509" type="line"/>
      <point x="-90" y="1509" type="line"/>
      <point x="-382" y="1174" type="line"/>
    </contour>
    <contour>
      <point x="255" y="1427" type="line"/>
      <point x="421" y="1442"/>
      <point x="518" y="1529"/>
      <point x="518" y="1666" type="curve" smooth="yes"/>
      <point x="518" y="1799"/>
      <point x="422" y="1885"/>
      <point x="271" y="1885" type="curve" smooth="yes"/>
      <point x="211" y="1885"/>
      <point x="151" y="1875"/>
      <point x="101" y="1855" type="curve"/>
      <point x="137" y="1723" type="line"/>
      <point x="178" y="1737"/>
      <point x="221" y="1745"/>
      <point x="265" y="1745" type="curve" smooth="yes"/>
      <point x="340" y="1745"/>
      <point x="380" y="1714"/>
      <point x="380" y="1658" type="curve" smooth="yes"/>
      <point x="380" y="1600"/>
      <point x="333" y="1567"/>
      <point x="238" y="1559" type="curve"/>
    </contour>
  </outline>
</glyph>
<glyph name="ijacute" format="2">
  <advance width="1200"/>
  <anchor x="343" y="1047" name="_top"/>
  <outline>
    <contour>
      <point x="724" y="-442" type="curve" smooth="yes"/>
      <point x="956" y="-442"/>
      <point x="1105" y="-285"/>
      <point x="1105" y="-31" type="curve" smooth="yes"/>
      <point x="1105" y="1047" type="line"/>
      <point x="925" y="1047" type="line"/>
      <point x="925" y="-35" type="line" smooth="yes"/>
      <point x="925" y="-191"/>
      <point x="853" y="-274"/>
      <point x="719" y="-274" type="curve" smooth="yes"/>
      <point x="638" y="-274"/>
      <point x="562" y="-245"/>
      <point x="482" y="-187" type="curve"/>
      <point x="390" y="-330" type="line"/>
      <point x="495" y="-405"/>
      <point x="604" y="-442"/>
    </contour>
    <contour>
      <point x="40" y="0" type="line"/>
      <point x="726" y="0" type="line"/>
      <point x="726" y="148" type="line"/>
      <point x="40" y="148" type="line"/>
    </contour>
    <contour>
      <point x="299" y="70" type="line"/>
      <point x="477" y="70" type="line"/>
      <point x="477" y="1047" type="line"/>
      <point x="299" y="1047" type="line"/>
    </contour>
    <contour>
      <point x="58" y="899" type="line"/>
      <point x="428" y="899" type="line"/>
      <point x="428" y="1047" type="line"/>
      <point x="58" y="1047" type="line"/>
    </contour>
    <contour>
      <point x="677" y="899" type="line"/>
      <point x="1061" y="899" type="line"/>
      <point x="1061" y="1047" type="line"/>
      <point x="677" y="1047" type="line"/>
    </contour>
    <component base="acutecomb" xOffset="343"/>
    <component base="acutecomb" xOffset="971"/>
  </outline>
</glyph>
<glyph name="ohorn.alt" format="2">
  <advance width="1200"/>
  <outline>
    <contour>
      <point x="596" y="-32" type="curve" smooth="yes"/>
      <point x="888" y="-32"/>
      <point x="1080" y="183"/>
      <point x="1080" y="510" type="curve" smooth="yes"/>
      <point x="1080" y="537" type="line" smooth="yes"/>
      <point x="1080" y="788"/>
      <point x="963" y="969"/>
      <point x="757" y="1031" type="curve"/>
      <point x="739" y="972" type="line"/>
      <point x="848" y="972" type="line" smooth="yes"/>
      <point x="1037" y="972"/>
      <point x="1148" y="1055"/>
      <point x="1148" y="1196" type="curve" smooth="yes"/>
      <point x="1148" y="1247"/>
      <point x="1138" y="1294"/>
      <point x="1117" y="1345" type="curve"/>
      <point x="928" y="1288" type="line"/>
      <point x="946" y="1246"/>
      <point x="955" y="1207"/>
      <point x="955" y="1171" type="curve" smooth="yes"/>
      <point x="955" y="1099"/>
      <point x="913" y="1065"/>
      <point x="824" y="1065" type="curve" smooth="yes"/>
      <point x="757" y="1065"/>
      <point x="687" y="1079"/>
      <point x="596" y="1079" type="curve" smooth="yes"/>
      <point x="303" y="1079"/>
      <point x="112" y="863"/>
      <point x="112" y="537" type="curve" smooth="yes"/>
      <point x="112" y="510" type="line" smooth="yes"/>
      <point x="112" y="185"/>
      <point x="303" y="-32"/>
    </contour>
    <contour>
      <point x="596" y="136" type="curve" smooth="yes"/>
      <point x="409" y="136"/>
      <point x="298" y="277"/>
      <point x="298" y="513" type="curve" smooth="yes"/>
      <point x="298" y="534" type="line" smooth="yes"/>
      <point x="298" y="774"/>
      <point x="409" y="917"/>
      <point x="596" y="917" type="curve" smooth="yes"/>
      <point x="782" y="917"/>
      <point x="894" y="774"/>
      <point x="894" y="534" type="curve" smooth="yes"/>
      <point x="894" y="513" type="line" smooth="yes"/>
      <point x="894" y="277"/>
      <point x="782" y="136"/>
    </contour>
  </outline>
</glyph>
